<?xml version="1.0" encoding="UTF-8" standalone="no"?>
<!DOCTYPE svg PUBLIC "-//W3C//DTD SVG 1.1//EN" "http://www.w3.org/Graphics/SVG/1.1/DTD/svg11.dtd">
<svg width="100%" height="100%" viewBox="0 0 10417 10417" version="1.1" xmlns="http://www.w3.org/2000/svg" xmlns:xlink="http://www.w3.org/1999/xlink" xml:space="preserve" xmlns:serif="http://www.serif.com/" style="fill-rule:evenodd;clip-rule:evenodd;stroke-linejoin:round;stroke-miterlimit:2;">
    <g transform="matrix(4.16667,0,0,4.16667,0,0)">
        <clipPath id="_clip1">
            <rect x="292.94" y="283.696" width="1861.76" height="1898.99"/>
        </clipPath>
        <g clip-path="url(#_clip1)">
            <g>
                <clipPath id="_clip2">
                    <rect x="285.953" y="278.826" width="1867.87" height="1906.39"/>
                </clipPath>
                <g clip-path="url(#_clip2)">
                    <rect x="0" y="0" width="2500" height="2500" style="fill:transparent;"/>
                    <path d="M761.302,2025.79C795.037,2001.68 829.958,1979.2 865.442,1957.77C937.462,1914.25 1012.14,1875.36 1087.34,1837.67C1126.89,1817.84 1167.5,1799.91 1207.71,1781.46C1248.16,1762.9 1288.69,1744.5 1329.23,1726.12C1366.27,1709.32 1403.31,1692.52 1440.31,1675.63C1563.52,1414.11 1699.54,1117.63 1682.85,1117.63L420.757,1081.83C390.9,1081.83 366.609,1106.12 366.609,1135.97L366.609,2012.38C366.609,2042.24 390.9,2066.53 420.757,2066.53L792.874,2068.93C811.973,2054.91 742.042,2039.56 761.302,2025.79Z" style="fill:#706076;fill-rule:nonzero;stroke:white;stroke-width:4px;"/>
                    <path d="M1724.8,1084.89L446.516,1084.89C418.302,1084.89 395.43,1107.76 395.43,1135.97L395.43,2012.38C395.43,2040.59 418.302,2063.47 446.516,2063.47L1724.8,2063.47C1753.01,2063.47 1775.88,2040.59 1775.88,2012.38L1775.88,1135.97C1775.88,1107.76 1753.01,1084.89 1724.8,1084.89Z" style="fill:white;fill-rule:nonzero;"/>
                    <path d="M446.516,1087.12C419.578,1087.12 397.663,1109.04 397.663,1135.97L397.663,2012.38C397.663,2039.32 419.578,2061.23 446.516,2061.23L1724.8,2061.23C1751.73,2061.23 1773.65,2039.32 1773.65,2012.38L1773.65,1135.97C1773.65,1109.04 1751.73,1087.12 1724.8,1087.12L446.516,1087.12ZM1724.8,2065.7L446.516,2065.7C417.115,2065.7 393.196,2041.78 393.196,2012.38L393.196,1135.97C393.196,1106.57 417.115,1082.65 446.516,1082.65L1724.8,1082.65C1754.2,1082.65 1778.12,1106.57 1778.12,1135.97L1778.12,2012.38C1778.12,2041.78 1754.2,2065.7 1724.8,2065.7Z" style="fill-rule:nonzero;"/>
                    <path d="M963.463,2067.37L441.629,2067.37C420.59,2067.37 403.475,2084.49 403.475,2105.52C403.475,2126.56 420.59,2143.68 441.629,2143.68L979.047,2143.68C1000.09,2143.68 963.463,2067.37 963.463,2067.37Z" style="fill:#706076;fill-rule:nonzero;stroke:white;stroke-width:4px;"/>
                    <path d="M2020.35,2067.37L788.519,2067.37C767.447,2067.37 750.365,2084.45 750.365,2105.52C750.365,2126.59 767.447,2143.68 788.519,2143.68L2020.35,2143.68C2041.42,2143.68 2058.5,2126.59 2058.5,2105.52C2058.5,2084.45 2041.42,2067.37 2020.35,2067.37Z" style="fill:white;fill-rule:nonzero;"/>
                    <path d="M788.52,2069.6C768.712,2069.6 752.599,2085.72 752.599,2105.52C752.599,2125.33 768.712,2141.44 788.52,2141.44L2020.35,2141.44C2040.16,2141.44 2056.27,2125.33 2056.27,2105.52C2056.27,2085.72 2040.16,2069.6 2020.35,2069.6L788.52,2069.6ZM2020.35,2145.91L788.52,2145.91C766.25,2145.91 748.132,2127.79 748.132,2105.52C748.132,2083.25 766.25,2065.14 788.52,2065.14L2020.35,2065.14C2042.62,2065.14 2060.74,2083.25 2060.74,2105.52C2060.74,2127.79 2042.62,2145.91 2020.35,2145.91Z" style="fill-rule:nonzero;"/>
                    <path d="M1681.95,1158.11L489.357,1158.11C476.982,1158.11 466.95,1168.14 466.95,1180.52L466.95,1197.01C466.95,1209.38 476.982,1219.41 489.357,1219.41L1681.95,1219.41C1694.33,1219.41 1704.36,1209.38 1704.36,1197.01L1704.36,1180.52C1704.36,1168.14 1694.33,1158.11 1681.95,1158.11Z" style="fill:#706076;fill-rule:nonzero;stroke:white;stroke-width:3px;"/>
                    <path d="M1676.17,1188.76C1676.17,1196.91 1669.56,1203.52 1661.41,1203.52C1653.26,1203.52 1646.65,1196.91 1646.65,1188.76C1646.65,1180.61 1653.26,1174 1661.41,1174C1669.56,1174 1676.17,1180.61 1676.17,1188.76Z" style="fill:white;fill-rule:nonzero;"/>
                    <rect x="467.458" y="1248.18" width="1236.9" height="744.2" style="fill:white;"/>
                    <path d="M469.691,1990.14L1702.13,1990.14L1702.13,1250.42L469.691,1250.42L469.691,1990.14ZM1704.36,1994.61L467.458,1994.61C466.225,1994.61 465.225,1993.61 465.225,1992.38L465.225,1248.18C465.225,1246.95 466.225,1245.95 467.458,1245.95L1704.36,1245.95C1705.6,1245.95 1706.6,1246.95 1706.6,1248.18L1706.6,1992.38C1706.6,1993.61 1705.6,1994.61 1704.36,1994.61Z" style="fill-rule:nonzero;"/>
                    <path d="M1980.81,1782.15L1668.5,1782.15L1716.71,2153.38C1788.29,2168.64 1860.24,2169.11 1932.6,2153.38L1980.81,1782.15Z" style="fill:#706076;fill-rule:nonzero;stroke:white;stroke-width:2.5px;"/>
                    <path d="M2003.89,1690.49L1645.42,1690.49L1700.76,2116.6C1782.91,2134.1 1865.5,2134.64 1948.56,2116.6L2003.89,1690.49Z" style="fill:white;fill-rule:nonzero;"/>
                    <path d="M1702.77,2114.74C1784.43,2131.92 1866.43,2131.92 1946.54,2114.75L2001.35,1692.73L1647.96,1692.73L1702.77,2114.74ZM1825.25,2132.1C1783.7,2132.1 1741.95,2127.66 1700.29,2118.78C1699.37,2118.58 1698.66,2117.82 1698.54,2116.89L1643.21,1690.78C1643.12,1690.15 1643.32,1689.5 1643.74,1689.02C1644.17,1688.54 1644.78,1688.26 1645.42,1688.26L2003.89,1688.26C2004.53,1688.26 2005.15,1688.54 2005.57,1689.02C2005.99,1689.5 2006.19,1690.15 2006.11,1690.78L1950.77,2116.89C1950.65,2117.82 1949.95,2118.58 1949.03,2118.78C1908.17,2127.66 1866.81,2132.1 1825.25,2132.1Z" style="fill-rule:nonzero;"/>
                    <path d="M1981.32,1647.36L1667.99,1647.36L1656.72,1684.43L1992.59,1684.43L1981.32,1647.36Z" style="fill:#706076;fill-rule:nonzero;stroke:white;stroke-width:4px;"/>
                    <path d="M1659.74,1682.19L1989.58,1682.19L1979.67,1649.59L1669.64,1649.59L1659.74,1682.19ZM1992.59,1686.66L1656.72,1686.66C1656.02,1686.66 1655.35,1686.32 1654.93,1685.76C1654.51,1685.19 1654.38,1684.46 1654.59,1683.78L1665.85,1646.71C1666.14,1645.77 1667,1645.13 1667.99,1645.13L1981.32,1645.13C1982.31,1645.13 1983.17,1645.77 1983.46,1646.71L1994.73,1683.78C1994.93,1684.46 1994.81,1685.19 1994.38,1685.76C1993.96,1686.32 1993.3,1686.66 1992.59,1686.66Z" style="fill-rule:nonzero;"/>
                    <rect x="1627.41" y="1684.43" width="394.5" height="40.07" style="fill:#706076;"/>
                    <path d="M1629.64,1722.27L2019.67,1722.27L2019.67,1686.66L1629.64,1686.66L1629.64,1722.27ZM2021.91,1726.74L1627.41,1726.74C1626.17,1726.74 1625.17,1725.74 1625.17,1724.5L1625.17,1684.43C1625.17,1683.19 1626.17,1682.19 1627.41,1682.19L2021.91,1682.19C2023.14,1682.19 2024.14,1683.19 2024.14,1684.43L2024.14,1724.5C2024.14,1725.74 2023.14,1726.74 2021.91,1726.74Z" style="fill-rule:nonzero;"/>
                    <path d="M1658.49,1830.42L1686.83,2047.93C1686.83,2047.93 1828.23,2091.06 1963.18,2047.93C1978.7,1942.64 1990.64,1830.42 1990.64,1830.42C1990.64,1830.42 1826.71,1852.67 1658.49,1830.42Z" style="fill:#706076;fill-rule:nonzero;stroke:white;stroke-width:2px;"/>
                    <path d="M1859.36,2010.76C1859.21,2010.76 1859.07,2010.76 1858.92,2010.75C1852.39,2010.47 1848.86,2004.19 1845.43,1998.12C1842.3,1992.56 1839.34,1987.31 1834.64,1986.81C1829.23,1986.25 1824.13,1992.27 1819.19,1998.09C1813.8,2004.46 1808.71,2010.48 1802.4,2008.94C1797.62,2007.78 1795.91,2003.11 1794.26,1998.59C1792.66,1994.2 1791.14,1990.06 1787.19,1988.48C1783.4,1986.97 1779.99,1988.71 1774.28,1991.91C1769.63,1994.52 1764.35,1997.49 1757.5,1998.37C1745.3,1999.95 1732.02,1994.14 1717.97,1981.14C1717.07,1980.3 1717.01,1978.89 1717.85,1977.98C1718.69,1977.07 1720.1,1977.02 1721.01,1977.86C1734.03,1989.93 1746.12,1995.34 1756.93,1993.94C1762.92,1993.17 1767.8,1990.43 1772.09,1988.02C1777.65,1984.9 1782.9,1981.96 1788.84,1984.33C1794.65,1986.65 1796.76,1992.42 1798.46,1997.05C1800.04,2001.38 1801.16,2004.04 1803.45,2004.6C1807.08,2005.47 1811.5,2000.26 1815.78,1995.21C1821.2,1988.81 1827.36,1981.53 1835.11,1982.37C1842.09,1983.11 1845.94,1989.92 1849.32,1995.92C1852.28,2001.16 1855.07,2006.11 1859.11,2006.29C1863.19,2006.39 1866.53,2001.77 1870.11,1996.8C1874.44,1990.79 1879.35,1983.99 1887.17,1983.34C1894.55,1982.73 1902.22,1987.86 1910.05,1998.57C1910.78,1999.57 1910.56,2000.97 1909.56,2001.69C1908.57,2002.42 1907.17,2002.2 1906.44,2001.21C1899.59,1991.83 1893.23,1987.31 1887.54,1987.79C1881.77,1988.27 1877.68,1993.93 1873.73,1999.41C1869.71,2004.99 1865.55,2010.76 1859.36,2010.76Z" style="fill:white;fill-rule:nonzero;"/>
                    <path d="M1864.61,1397.15C1860.57,1401.22 1856.42,1405.15 1852.56,1409.36C1850.57,1411.4 1848.68,1413.53 1846.83,1415.7L1843.99,1418.89L1841.29,1422.2C1834.16,1431.02 1827.7,1440.46 1823.25,1450.72C1818.72,1460.89 1816.63,1472.26 1819.13,1482.94C1821.33,1493.7 1828.11,1502.99 1836.05,1510.9C1844.01,1518.91 1853.11,1525.94 1861.47,1534.01C1865.66,1538.04 1869.58,1542.44 1872.96,1547.28C1876.36,1552.1 1878.99,1557.54 1880.59,1563.27C1883.84,1574.79 1882.24,1587.21 1877.6,1597.9C1873.03,1608.69 1866.01,1618.13 1858.11,1626.49C1857.83,1626.79 1857.36,1626.81 1857.06,1626.52C1856.77,1626.25 1856.75,1625.8 1857.01,1625.5C1864.44,1616.87 1871.07,1607.42 1875.13,1596.9C1877.16,1591.66 1878.51,1586.18 1878.96,1580.63C1879.39,1575.1 1878.88,1569.49 1877.28,1564.21C1875.7,1558.92 1873.18,1553.93 1869.89,1549.44C1866.63,1544.92 1862.76,1540.83 1858.68,1536.92C1850.49,1529.09 1841.33,1522.12 1833.05,1513.9C1828.9,1509.81 1825.01,1505.34 1821.78,1500.34C1818.52,1495.37 1816.07,1489.77 1814.78,1483.89C1813.44,1478.02 1813.38,1471.89 1814.31,1466C1815.21,1460.1 1817.04,1454.41 1819.48,1449.07C1820.03,1447.7 1820.68,1446.38 1821.37,1445.1C1822.06,1443.8 1822.69,1442.48 1823.42,1441.21C1824.94,1438.72 1826.38,1436.17 1828.11,1433.82L1830.61,1430.25C1831.47,1429.07 1832.39,1427.95 1833.27,1426.8L1835.97,1423.39L1838.81,1420.11L1841.66,1416.84L1844.64,1413.7C1846.63,1411.6 1848.66,1409.55 1850.78,1407.59C1854.89,1403.55 1859.26,1399.8 1863.62,1396.05C1863.93,1395.78 1864.4,1395.81 1864.66,1396.12C1864.92,1396.42 1864.9,1396.86 1864.63,1397.13L1864.61,1397.15Z" style="fill-rule:nonzero;"/>
                    <path d="M1881.17,1446.03C1878.09,1454.06 1876.28,1462.58 1876.58,1471.07C1876.62,1475.32 1877.54,1479.47 1878.48,1483.56C1879.19,1485.54 1879.71,1487.58 1880.56,1489.5L1881.91,1492.35C1882.35,1493.31 1882.79,1494.26 1883.38,1495.13C1887.59,1502.46 1893.51,1508.66 1899.63,1514.71C1905.76,1520.75 1912.38,1526.56 1917.88,1533.67C1923.34,1540.67 1927.64,1549.42 1927.77,1558.72C1928.14,1567.96 1925.24,1576.85 1921.21,1584.73C1912.94,1600.58 1900.54,1613.36 1887.55,1624.88C1887.25,1625.15 1886.79,1625.12 1886.53,1624.82C1886.28,1624.54 1886.29,1624.11 1886.54,1623.84C1892.54,1617.58 1898.38,1611.18 1903.73,1604.44C1909.11,1597.73 1913.89,1590.55 1917.56,1582.93C1919.47,1579.14 1920.89,1575.17 1921.94,1571.14C1923.03,1567.12 1923.53,1562.98 1923.35,1558.89C1923.1,1550.65 1919.57,1542.92 1914.47,1536.28C1909.39,1529.57 1902.94,1523.78 1896.77,1517.6C1890.57,1511.46 1884.61,1504.72 1880.32,1496.84C1875.99,1489 1873.76,1479.98 1873.87,1471.1C1873.97,1462.19 1876.17,1453.43 1879.83,1445.47C1880,1445.11 1880.43,1444.95 1880.79,1445.12C1881.14,1445.28 1881.3,1445.68 1881.17,1446.03Z" style="fill-rule:nonzero;"/>
                    <path d="M1992.04,747.023L1450.86,747.023C1435.1,747.023 1422.32,734.245 1422.32,718.483L1422.32,365.772C1422.32,350.01 1435.1,337.232 1450.86,337.232L1992.04,337.232C2007.8,337.232 2020.58,350.01 2020.58,365.772L2020.58,718.483C2020.58,734.245 2007.8,747.023 1992.04,747.023Z" style="fill:white;fill-rule:nonzero;"/>
                    <path d="M1450.86,339.467C1436.36,339.467 1424.56,351.269 1424.56,365.772L1424.56,718.484C1424.56,732.988 1436.36,744.79 1450.86,744.79L1992.04,744.79C2006.55,744.79 2018.35,732.988 2018.35,718.484L2018.35,365.772C2018.35,351.269 2006.55,339.467 1992.04,339.467L1450.86,339.467ZM1992.04,749.256L1450.86,749.256C1433.9,749.256 1420.09,735.453 1420.09,718.484L1420.09,365.772C1420.09,348.804 1433.9,335 1450.86,335L1992.04,335C2009.01,335 2022.82,348.804 2022.82,365.772L2022.82,718.484C2022.82,735.453 2009.01,749.256 1992.04,749.256Z" style="fill-rule:nonzero;"/>
                    <path d="M1721.45,696.717C1720.22,696.717 1719.22,695.718 1719.22,694.484L1719.22,388.147C1719.22,386.913 1720.22,385.914 1721.45,385.914C1722.69,385.914 1723.69,386.913 1723.69,388.147L1723.69,694.484C1723.69,695.718 1722.69,696.717 1721.45,696.717Z" style="fill-rule:nonzero;"/>
                    <path d="M1713.88,397.044L1721.45,389.467L1729.03,397.044L1729.03,390.614L1721.45,383.042L1713.88,390.614L1713.88,397.044Z" style="fill-rule:nonzero;"/>
                    <path d="M1953.36,576.258L1484.44,576.258C1483.21,576.258 1482.21,575.259 1482.21,574.025C1482.21,572.791 1483.21,571.792 1484.44,571.792L1953.36,571.792C1954.6,571.792 1955.6,572.791 1955.6,574.025C1955.6,575.259 1954.6,576.258 1953.36,576.258Z" style="fill-rule:nonzero;"/>
                    <path d="M1944.46,581.597L1952.04,574.025L1944.46,566.452L1950.89,566.452L1958.47,574.025L1950.89,581.597L1944.46,581.597Z" style="fill-rule:nonzero;"/>
                    <path d="M1722.51,676.106C1668.9,676.106 1625.28,632.488 1625.28,578.874L1625.28,522.535C1625.28,471.383 1583.66,429.766 1532.51,429.766L1484.44,429.766C1483.21,429.766 1482.21,428.768 1482.21,427.533C1482.21,426.298 1483.21,425.299 1484.44,425.299L1532.51,425.299C1586.12,425.299 1629.74,468.918 1629.74,522.535L1629.74,578.874C1629.74,630.025 1671.36,671.64 1722.51,671.64C1773.66,671.64 1815.28,630.025 1815.28,578.874L1815.28,522.535C1815.28,468.918 1858.9,425.299 1912.51,425.299L1940.68,425.299C1941.91,425.299 1942.91,426.298 1942.91,427.533C1942.91,428.768 1941.91,429.766 1940.68,429.766L1912.51,429.766C1861.36,429.766 1819.75,471.383 1819.75,522.535L1819.75,578.874C1819.75,632.488 1776.13,676.106 1722.51,676.106Z" style="fill-rule:nonzero;"/>
                    <path d="M1160.67,976.286C1138.51,983.175 1127.22,951.441 1086.22,946.508C1046.29,941.701 1036.87,969.385 993.907,970.329C944.939,971.404 889.962,936.922 886.704,901.84C883.865,871.281 921.523,853.794 913.278,833.03C905.677,813.89 872.39,825.497 838.961,800.714C810.266,779.44 790.409,737.983 800.347,708.279C807.904,685.692 826.599,688.106 836.081,662.122C846.134,634.571 828.951,623.092 836.892,594.987C845.071,566.044 874.809,538.182 903.564,537.894C931.436,537.614 935.998,563.469 967.106,565.342C1002.75,567.491 1017.14,534.777 1038.57,543.008C1061.69,551.885 1051.97,592.627 1082.65,610.034C1095.44,617.284 1099.06,611.554 1124.93,618.943C1138.12,622.71 1163.44,629.945 1178.98,646.571C1208.77,678.438 1181.09,721.762 1206.82,742.523C1226,757.992 1246.93,738.437 1275.31,755.924C1292.85,766.729 1311.14,790.384 1307.21,811.052C1301.03,843.576 1246.49,833.687 1208.31,879.506C1173.33,921.489 1187.28,968.008 1160.67,976.286Z" style="fill:#706076;fill-rule:nonzero;stroke:white;stroke-width:2px;"/>
                    <path d="M789.821,1333.51C789.748,1333.51 789.674,1333.51 789.599,1333.5C788.373,1333.38 787.475,1332.29 787.596,1331.06L794.003,1265.94C794.124,1264.71 795.196,1263.84 796.444,1263.93C797.671,1264.05 798.569,1265.15 798.448,1266.38L792.041,1331.5C791.928,1332.65 790.956,1333.51 789.821,1333.51Z" style="fill-rule:nonzero;"/>
                    <path d="M1931.08,740.868C1921.12,731.426 1909.48,731.143 1895.85,732.827L1891.05,729.823C1880.52,723.245 1867.78,721.204 1855.72,724.164L1760.75,747.487C1756.77,748.465 1753.16,744.925 1754.06,740.931C1755.88,732.964 1758.59,721.003 1760.69,711.555C1762.84,701.886 1759.02,696.198 1755.8,693.271C1753.97,691.601 1751.12,691.782 1749.49,693.653C1738.98,705.701 1700.16,751.817 1701.39,774.62C1702.81,800.986 1720.9,877.766 1720.9,877.766L1801.61,877.766L1785.79,826.064C1784.68,822.441 1786.62,818.587 1790.19,817.325L1905.44,776.563C1907.52,775.828 1908.2,773.25 1906.77,771.577C1904.21,768.58 1900.16,764.295 1895.75,761.317L1928.52,748.366C1931.5,747.188 1932.72,743.623 1931.08,740.868Z" style="fill:white;fill-rule:nonzero;"/>
                    <path d="M1722.67,875.532L1798.59,875.532L1783.65,826.718C1782.19,821.935 1784.73,816.886 1789.45,815.22L1904.7,774.458C1905.08,774.321 1905.22,774.018 1905.26,773.85C1905.31,773.68 1905.34,773.346 1905.07,773.027C1902.56,770.087 1898.68,765.989 1894.5,763.169C1893.81,762.705 1893.44,761.9 1893.53,761.075C1893.62,760.251 1894.16,759.544 1894.93,759.241L1927.7,746.29C1928.51,745.97 1929.14,745.313 1929.42,744.486C1929.67,743.749 1929.62,742.947 1929.29,742.251C1920.35,733.95 1909.96,733.333 1896.12,735.042C1895.62,735.099 1895.1,734.992 1894.67,734.72L1889.86,731.716C1879.91,725.496 1867.66,723.533 1856.26,726.332L1761.28,749.655C1758.66,750.31 1755.93,749.555 1754,747.66C1752.08,745.769 1751.29,743.069 1751.89,740.436C1753.7,732.471 1756.41,720.515 1758.51,711.071C1760.4,702.606 1757.26,697.618 1754.3,694.922C1753.87,694.527 1753.3,694.318 1752.71,694.362C1752.12,694.396 1751.57,694.667 1751.17,695.121C1727.57,722.166 1702.69,757.222 1703.62,774.5C1704.89,798.19 1720,864.023 1722.67,875.532ZM1801.61,879.999L1720.9,879.999C1719.86,879.999 1718.96,879.286 1718.72,878.278C1717.98,875.135 1700.57,801.004 1699.16,774.74C1697.9,751.315 1736.08,705.629 1747.81,692.185C1749,690.817 1750.65,690.008 1752.46,689.904C1754.23,689.766 1755.97,690.408 1757.31,691.618C1760.45,694.475 1765.35,700.929 1762.87,712.039C1760.77,721.492 1758.06,733.457 1756.24,741.426C1755.99,742.554 1756.31,743.664 1757.13,744.476C1757.96,745.289 1759.09,745.597 1760.22,745.32L1855.19,721.996C1867.75,718.909 1881.26,721.073 1892.23,727.93L1896.37,730.515C1910.83,728.8 1922.56,729.716 1932.62,739.248C1932.77,739.389 1932.9,739.551 1933,739.728C1934.12,741.603 1934.35,743.865 1933.65,745.93C1932.94,747.996 1931.37,749.643 1929.34,750.443L1900.27,761.933C1903.54,764.644 1906.43,767.743 1908.47,770.125C1909.62,771.472 1910.03,773.296 1909.58,775.003C1909.12,776.707 1907.85,778.077 1906.19,778.667L1790.94,819.429C1788.48,820.297 1787.16,822.923 1787.92,825.41L1803.75,877.111C1803.96,877.79 1803.83,878.524 1803.41,879.094C1802.99,879.663 1802.32,879.999 1801.61,879.999Z" style="fill-rule:nonzero;"/>
                    <path d="M1797.18,787.592C1796.18,787.592 1795.27,786.917 1795.02,785.902C1794.72,784.705 1795.44,783.492 1796.64,783.193L1878.53,762.691C1879.73,762.386 1880.94,763.117 1881.24,764.314C1881.54,765.512 1880.81,766.724 1879.61,767.023L1797.72,787.525C1797.54,787.571 1797.36,787.592 1797.18,787.592Z" style="fill-rule:nonzero;"/>
                    <path d="M1788.84,763.603C1787.84,763.603 1786.93,762.927 1786.68,761.913C1786.38,760.715 1787.1,759.503 1788.3,759.204L1870.19,738.702C1871.39,738.401 1872.6,739.13 1872.9,740.325C1873.2,741.522 1872.47,742.735 1871.28,743.034L1789.39,763.536C1789.2,763.582 1789.02,763.603 1788.84,763.603Z" style="fill-rule:nonzero;"/>
                    <path d="M709.514,1098.3C732.447,1099.68 770.875,1101.58 794.248,1102.7C805.073,1103.22 813.199,1112.76 812.007,1123.54L796.225,1266.16C796.225,1266.16 832.29,1249.94 871.784,1202.9C911.278,1155.85 946.855,1059.15 1034.32,1055.73C1089.98,1053.55 1229.61,1062.46 1323.82,1069.23C1372.21,1072.7 1419.15,1087.54 1460.47,1112.97C1490.49,1131.44 1535.07,1147.94 1591.44,1137.69C1694.94,1118.86 1741.7,1030.27 1698.61,887.179C1694.66,874.075 1704.42,860.858 1718.1,860.858L1805.89,860.858C1815.42,860.858 1823.79,867.143 1826.48,876.291C1846.48,944.505 1913.31,1219.39 1720.9,1305.94C1607.34,1357.01 1487.99,1351.13 1487.99,1351.13L1535.13,1781.84C1540.17,1827.87 1517.54,1872.56 1477.37,1895.6C1435.21,1919.77 1369.31,1941.97 1271.27,1938.72C1189.42,1936.01 1125.81,1921.51 1078.85,1905.01C1014.6,1882.44 968.303,1826 958.45,1758.61C947.839,1686.05 935.567,1573.51 933.547,1432.2C933.547,1432.2 867.039,1505.05 740.487,1481.46C584.198,1452.33 659.858,1188.67 684.062,1115.54C687.655,1104.68 698.096,1097.62 709.514,1098.3Z" style="fill:white;fill-rule:nonzero;"/>
                    <path d="M933.548,1429.97C933.814,1429.97 934.083,1430.01 934.341,1430.11C935.197,1430.44 935.769,1431.25 935.782,1432.17C937.823,1575.06 950.437,1688.38 960.66,1758.29C970.437,1825.16 1016.01,1880.57 1079.59,1902.91C1136.37,1922.86 1200.88,1934.15 1271.35,1936.49C1353.02,1939.18 1421.98,1924.78 1476.26,1893.66C1515.62,1871.09 1537.86,1827.29 1532.91,1782.08L1485.77,1351.37C1485.7,1350.72 1485.92,1350.07 1486.37,1349.6C1486.82,1349.12 1487.45,1348.87 1488.1,1348.9C1489.29,1348.96 1608.25,1354.16 1719.98,1303.9C1800.98,1267.47 1845.1,1193.53 1851.11,1084.12C1855.96,996.046 1834,909.879 1824.33,876.919C1821.95,868.777 1814.36,863.091 1805.89,863.091L1718.1,863.091C1712.31,863.091 1707.01,865.757 1703.56,870.402C1700.09,875.072 1699.06,880.952 1700.74,886.536C1724.19,964.375 1721.89,1029.52 1694.11,1074.92C1673.22,1109.05 1637.86,1131.52 1591.84,1139.89C1533.22,1150.55 1487.41,1132.17 1459.3,1114.87C1418.77,1089.93 1371.87,1074.92 1323.66,1071.46C1221.67,1064.13 1088.7,1055.84 1034.41,1057.96C969.398,1060.51 933.921,1114.94 902.621,1162.97C892.634,1178.3 883.2,1192.77 873.494,1204.33C834.124,1251.23 798.633,1267.52 797.141,1268.19C796.412,1268.52 795.559,1268.44 794.911,1267.96C794.262,1267.49 793.917,1266.71 794.005,1265.91L809.787,1123.29C810.295,1118.69 808.924,1114.23 805.925,1110.71C802.933,1107.21 798.748,1105.15 794.141,1104.93C772.483,1103.89 732.672,1101.94 709.379,1100.53C698.935,1099.87 689.448,1106.37 686.182,1116.24C669.122,1167.79 617.473,1342.78 669.139,1430.27C684.826,1456.83 708.968,1473.32 740.896,1479.27C864.789,1502.37 931.243,1431.41 931.898,1430.69C932.33,1430.22 932.933,1429.97 933.548,1429.97ZM1290.5,1941.27C1284.14,1941.27 1277.71,1941.17 1271.2,1940.95C1200.28,1938.6 1135.32,1927.22 1078.11,1907.12C1012.96,1884.23 966.258,1827.45 956.241,1758.94C946.122,1689.74 933.665,1578.1 931.393,1437.41C915.436,1452.04 849.646,1504.08 740.079,1483.66C706.827,1477.46 681.665,1460.26 665.293,1432.54C612.668,1343.43 664.731,1166.84 681.942,1114.84C685.845,1103.04 697.286,1095.31 709.647,1096.07C732.917,1097.48 772.708,1099.43 794.355,1100.47C800.207,1100.75 805.522,1103.36 809.324,1107.81C813.13,1112.28 814.872,1117.95 814.228,1123.78L798.9,1262.29C808.925,1256.9 838.533,1239.03 870.073,1201.46C879.605,1190.11 888.968,1175.74 898.878,1160.53C929.191,1114.02 966.917,1056.13 1034.24,1053.5C1088.71,1051.37 1221.87,1059.67 1323.98,1067C1372.9,1070.51 1420.5,1085.75 1461.64,1111.07C1489.09,1127.96 1533.81,1145.9 1591.04,1135.49C1635.77,1127.36 1670.09,1105.6 1690.3,1072.59C1717.4,1028.3 1719.53,964.41 1696.47,887.822C1694.37,880.875 1695.65,873.554 1699.98,867.737C1704.28,861.946 1710.89,858.625 1718.1,858.625L1805.89,858.625C1816.33,858.625 1825.68,865.63 1828.62,875.663C1838.35,908.843 1860.46,995.599 1855.57,1084.36C1849.46,1195.57 1804.45,1270.8 1721.81,1307.98C1618.3,1354.53 1508.67,1353.91 1490.49,1353.45L1537.36,1781.59C1542.5,1828.57 1519.39,1874.08 1478.48,1897.53C1427.81,1926.59 1364.65,1941.27 1290.5,1941.27Z" style="fill-rule:nonzero;"/>
                    <path d="M793.232,1008.23L782.974,996.862L782.974,920.307C782.974,912.856 776.935,906.817 769.485,906.817C762.036,906.817 755.996,912.856 755.996,920.307L755.996,1002.73L684.21,1018.36L684.21,1060.44C684.21,1078.77 694.858,1095.43 711.492,1103.13L715.063,1104.78C736.595,1114.75 761.747,1112.89 781.578,1099.87C791.149,1093.58 797.482,1083.41 798.902,1072.05L803,1039.26C804.409,1027.99 800.844,1016.66 793.232,1008.23Z" style="fill:white;fill-rule:nonzero;"/>
                    <path d="M686.443,1020.16L686.443,1060.44C686.443,1077.83 696.645,1093.8 712.43,1101.1L716.001,1102.76C736.976,1112.47 761.033,1110.69 780.352,1098C789.391,1092.06 795.344,1082.5 796.687,1071.77L800.785,1038.98C802.114,1028.35 798.756,1017.68 791.574,1009.72L781.316,998.357C780.945,997.948 780.74,997.413 780.74,996.861L780.74,920.307C780.74,914.1 775.691,909.05 769.484,909.05C763.278,909.05 758.229,914.1 758.229,920.307L758.229,1002.73C758.229,1003.78 757.498,1004.69 756.471,1004.92L686.443,1020.16ZM743.962,1113.43C733.85,1113.43 723.688,1111.24 714.125,1106.81L710.554,1105.16C693.194,1097.12 681.977,1079.57 681.977,1060.44L681.977,1018.36C681.977,1017.31 682.708,1016.4 683.735,1016.17L753.763,1000.93L753.763,920.307C753.763,911.637 760.815,904.583 769.484,904.583C778.154,904.583 785.207,911.637 785.207,920.307L785.207,996.002L794.889,1006.73C802.943,1015.65 806.708,1027.61 805.217,1039.54L801.118,1072.32C799.615,1084.35 792.938,1095.07 782.803,1101.73C770.993,1109.49 757.522,1113.43 743.962,1113.43Z" style="fill-rule:nonzero;"/>
                    <path d="M744.878,1024.4L736.096,1024.4C730.56,1024.4 726.072,1019.92 726.072,1014.38L726.072,983.618C726.072,978.082 730.56,973.594 736.096,973.594L742.203,973.594C749.216,973.594 754.902,979.279 754.902,986.292L754.902,1014.38C754.902,1019.92 750.414,1024.4 744.878,1024.4Z" style="fill:white;fill-rule:nonzero;"/>
                    <path d="M736.096,975.828C731.8,975.828 728.305,979.321 728.305,983.618L728.305,1014.38C728.305,1018.68 731.8,1022.17 736.096,1022.17L744.878,1022.17C749.174,1022.17 752.669,1018.68 752.669,1014.38L752.669,986.292C752.669,980.521 747.974,975.828 742.203,975.828L736.096,975.828ZM744.878,1026.64L736.096,1026.64C729.337,1026.64 723.838,1021.14 723.838,1014.38L723.838,983.618C723.838,976.859 729.337,971.361 736.096,971.361L742.203,971.361C750.437,971.361 757.136,978.059 757.136,986.292L757.136,1014.38C757.136,1021.14 751.637,1026.64 744.878,1026.64Z" style="fill-rule:nonzero;"/>
                    <path d="M716.049,1030.72L714.282,1030.72C708.746,1030.72 704.258,1026.23 704.258,1020.7L704.258,990.714C704.258,985.178 708.746,980.69 714.282,980.69L716.049,980.69C721.584,980.69 726.072,985.178 726.072,990.714L726.072,1020.7C726.072,1026.23 721.584,1030.72 716.049,1030.72Z" style="fill:white;fill-rule:nonzero;"/>
                    <path d="M714.281,982.924C709.986,982.924 706.492,986.418 706.492,990.715L706.492,1020.7C706.492,1024.99 709.986,1028.49 714.281,1028.49L716.049,1028.49C720.345,1028.49 723.838,1024.99 723.838,1020.7L723.838,990.715C723.838,986.418 720.345,982.924 716.049,982.924L714.281,982.924ZM716.049,1032.96L714.281,1032.96C707.523,1032.96 702.025,1027.46 702.025,1020.7L702.025,990.715C702.025,983.956 707.523,978.458 714.281,978.458L716.049,978.458C722.807,978.458 728.305,983.956 728.305,990.715L728.305,1020.7C728.305,1027.46 722.807,1032.96 716.049,1032.96Z" style="fill-rule:nonzero;"/>
                    <path d="M694.234,1038.62C688.698,1038.62 684.21,1034.13 684.21,1028.6L684.21,998.928C684.21,993.392 688.698,988.904 694.234,988.904C699.77,988.904 704.258,993.392 704.258,998.928L704.258,1028.6C704.258,1034.13 699.77,1038.62 694.234,1038.62Z" style="fill:white;fill-rule:nonzero;"/>
                    <path d="M694.234,991.138C689.938,991.138 686.443,994.632 686.443,998.927L686.443,1028.6C686.443,1032.89 689.938,1036.39 694.234,1036.39C698.53,1036.39 702.025,1032.89 702.025,1028.6L702.025,998.927C702.025,994.632 698.53,991.138 694.234,991.138ZM694.234,1040.85C687.475,1040.85 681.977,1035.35 681.977,1028.6L681.977,998.927C681.977,992.17 687.475,986.671 694.234,986.671C700.993,986.671 706.492,992.17 706.492,998.927L706.492,1028.6C706.492,1035.35 700.993,1040.85 694.234,1040.85Z" style="fill-rule:nonzero;"/>
                    <path d="M789.816,1026.64C789.365,1026.64 788.909,1026.5 788.514,1026.22L757.855,1004.15C756.854,1003.44 756.626,1002.04 757.347,1001.04C758.069,1000.04 759.463,999.813 760.464,1000.53L791.123,1022.59C792.124,1023.31 792.352,1024.71 791.631,1025.71C791.195,1026.31 790.511,1026.64 789.816,1026.64Z" style="fill-rule:nonzero;"/>
                    <path d="M735.343,1078.5C734.155,1078.5 733.167,1077.56 733.113,1076.37C731.998,1051.33 747.986,1041.11 755.168,1037.8L743.302,1025.99C742.429,1025.12 742.425,1023.7 743.296,1022.83C744.165,1021.95 745.578,1021.95 746.454,1022.82L760.735,1037.04C761.299,1037.6 761.521,1038.42 761.32,1039.18C761.119,1039.95 760.524,1040.56 759.757,1040.77C758.804,1041.04 736.31,1047.74 737.576,1076.17C737.63,1077.4 736.676,1078.44 735.444,1078.5L735.343,1078.5Z" style="fill-rule:nonzero;"/>
                    <path d="M1066.4,1994.65C1066.4,1994.65 1038.85,1646.55 1118.37,1535.5L1377.6,1524.61C1377.6,1524.61 1471.7,1643.29 1461.51,1992.38L1066.4,1994.65Z" style="fill:#706076;fill-rule:nonzero;stroke:white;stroke-width:4px;"/>
                    <path d="M1048.21,1055.14L1014.87,1525.79C1013.36,1547.06 1028.18,1566.04 1049.19,1569.66C1115.89,1581.16 1263.56,1598.83 1413.19,1564.91C1430.08,1561.08 1440.89,1544.58 1437.41,1527.62L1343.84,1071.33C1343.84,1071.33 1175.1,1047.48 1048.21,1055.14Z" style="fill:white;fill-rule:nonzero;"/>
                    <path d="M1050.3,1057.25L1017.09,1525.95C1015.66,1546.18 1029.62,1564.02 1049.56,1567.46C1122.2,1579.98 1265.95,1596 1412.7,1562.73C1428.58,1559.13 1438.47,1543.9 1435.22,1528.07L1341.97,1073.33C1324.71,1070.98 1168.82,1050.43 1050.3,1057.25ZM1225.69,1586.98C1152.4,1586.98 1089.5,1578.87 1048.81,1571.86C1026.59,1568.03 1011.04,1548.16 1012.64,1525.64L1045.98,1054.98C1046.06,1053.86 1046.96,1052.97 1048.08,1052.91C1173.73,1045.31 1342.46,1068.88 1344.15,1069.12C1345.09,1069.25 1345.84,1069.96 1346.03,1070.88L1439.6,1527.17C1443.34,1545.41 1431.96,1562.94 1413.69,1567.09C1348.45,1581.88 1283.8,1586.98 1225.69,1586.98Z" style="fill-rule:nonzero;"/>
                    <path d="M1143.17,1515.88C1142.22,1515.88 1141.33,1515.27 1141.04,1514.31C1140.67,1513.13 1141.33,1511.88 1142.51,1511.52C1272.88,1471.21 1334.73,1321.64 1335.34,1320.13C1335.8,1318.99 1337.11,1318.44 1338.25,1318.9C1339.39,1319.36 1339.94,1320.67 1339.48,1321.81C1338.86,1323.33 1276.2,1474.86 1143.83,1515.78C1143.61,1515.85 1143.39,1515.88 1143.17,1515.88Z" style="fill-rule:nonzero;"/>
                    <path d="M1266.13,893.079C1258.42,883.807 1253.2,872.703 1250.98,860.845C1247.03,839.728 1242.73,821.03 1242.73,821.03C1211.19,847.185 1175.64,829.189 1175.64,829.189C1145.94,852.269 1151.32,884.762 1151.32,884.762C1151.32,884.762 1123.69,881.737 1125.63,899.565C1127.55,917.258 1154.18,921.692 1154.58,921.757L1122.15,1052.71C1120.12,1060.91 1125.23,1069.21 1133.48,1071.01C1183.41,1081.91 1214.71,1077.82 1230.53,1073.6C1235.15,1072.36 1236.56,1066.65 1233.15,1063.29C1215.74,1046.09 1212.8,996.936 1212.86,964.665C1228.97,968.257 1243.84,965.053 1251.22,950.237C1256.49,939.648 1257.89,928.508 1257.27,911.777C1257.16,908.839 1268.05,896.479 1266.13,893.079Z" style="fill:white;fill-rule:nonzero;"/>
                    <path d="M1146.88,886.804C1142.04,886.804 1134.23,887.482 1130.23,891.478C1128.27,893.443 1127.49,896.01 1127.85,899.323C1129.58,915.273 1154.69,919.511 1154.94,919.552C1155.56,919.652 1156.1,920.006 1156.45,920.525C1156.79,921.046 1156.9,921.688 1156.75,922.293L1124.32,1053.25C1123.48,1056.64 1124.03,1060.15 1125.88,1063.12C1127.72,1066.06 1130.58,1068.09 1133.96,1068.83C1184.57,1079.88 1215.83,1075.21 1229.95,1071.44C1231.32,1071.08 1232.31,1070.09 1232.67,1068.75C1233.04,1067.36 1232.63,1065.91 1231.58,1064.88C1214.13,1047.64 1210.55,1000.86 1210.63,964.661C1210.63,963.982 1210.94,963.343 1211.47,962.92C1212,962.501 1212.69,962.338 1213.35,962.486C1225.37,965.162 1241.35,965.044 1249.22,949.243C1254.05,939.537 1255.68,929.057 1255.04,911.859C1254.97,910.032 1256.42,907.713 1259.19,903.434C1260.93,900.743 1264.13,895.805 1264.13,894.167C1256.35,884.692 1251.04,873.323 1248.79,861.255C1245.87,845.707 1242.75,831.333 1241.33,824.974C1213.23,845.892 1182.63,834.648 1175.96,831.785C1148.81,853.737 1153.47,884.091 1153.52,884.398C1153.63,885.087 1153.42,885.79 1152.94,886.295C1152.46,886.804 1151.77,887.063 1151.07,886.983C1151.02,886.979 1149.33,886.804 1146.88,886.804ZM1192.46,1080.26C1176.5,1080.26 1156.83,1078.4 1133,1073.19C1128.44,1072.2 1124.56,1069.46 1122.09,1065.48C1119.6,1061.47 1118.85,1056.75 1119.98,1052.18L1151.85,923.487C1144.9,921.912 1125.17,916.034 1123.41,899.805C1122.9,895.122 1124.14,891.255 1127.08,888.313C1132.85,882.551 1143.72,882.187 1148.81,882.363C1148.18,873.796 1148.6,847.377 1174.27,827.425C1174.94,826.895 1175.87,826.803 1176.64,827.196C1176.99,827.373 1211.3,844.193 1241.31,819.312C1241.9,818.814 1242.71,818.666 1243.45,818.915C1244.18,819.163 1244.74,819.774 1244.91,820.531C1244.95,820.718 1249.26,839.514 1253.18,860.435C1255.32,871.898 1260.39,882.692 1267.85,891.65C1267.94,891.752 1268.01,891.864 1268.08,891.981C1269.75,894.946 1267.25,899.203 1262.94,905.864C1261.55,908.008 1259.65,910.943 1259.5,911.822C1260.17,929.709 1258.41,940.795 1253.21,951.232C1246.41,964.894 1232.94,970.576 1215.1,967.391C1215.2,996.708 1218.03,1045.22 1234.72,1061.7C1236.92,1063.87 1237.77,1066.94 1236.99,1069.89C1236.22,1072.79 1234.02,1074.98 1231.11,1075.76C1222,1078.19 1209.29,1080.26 1192.46,1080.26Z" style="fill-rule:nonzero;"/>
                    <path d="M1212.87,966.898C1212.73,966.898 1212.59,966.887 1212.46,966.861C1199.7,964.499 1182.2,952.632 1181.46,952.128C1180.44,951.433 1180.18,950.043 1180.87,949.024C1181.57,948.006 1182.96,947.744 1183.98,948.438C1184.15,948.556 1201.44,960.279 1213.27,962.468C1214.48,962.693 1215.28,963.858 1215.06,965.07C1214.86,966.146 1213.92,966.898 1212.87,966.898Z" style="fill-rule:nonzero;"/>
                    <path d="M637.773,1035.06L470.893,1035.06C453.931,1035.06 440.131,1021.26 440.131,1004.3L440.131,651.133C440.131,634.169 453.931,620.37 470.893,620.37L577.656,620.37C578.89,620.37 579.89,621.369 579.89,622.603C579.89,623.838 578.89,624.836 577.656,624.836L470.893,624.836C456.394,624.836 444.598,636.634 444.598,651.133L444.598,1004.3C444.598,1018.8 456.394,1030.59 470.893,1030.59L637.773,1030.59C639.007,1030.59 640.007,1031.59 640.007,1032.83C640.007,1034.06 639.007,1035.06 637.773,1035.06Z" style="fill-rule:nonzero;"/>
                    <path d="M1012.09,1035.06L839.198,1035.06C837.965,1035.06 836.965,1034.06 836.965,1032.83C836.965,1031.59 837.965,1030.59 839.198,1030.59L1012.09,1030.59C1026.59,1030.59 1038.39,1018.8 1038.39,1004.3L1038.39,950.283C1038.39,949.049 1039.39,948.05 1040.62,948.05C1041.86,948.05 1042.86,949.049 1042.86,950.283L1042.86,1004.3C1042.86,1021.26 1029.05,1035.06 1012.09,1035.06Z" style="fill-rule:nonzero;"/>
                    <path d="M1040.62,952.517C1039.39,952.517 1038.39,951.518 1038.39,950.283L1038.39,651.133C1038.39,636.634 1026.59,624.836 1012.09,624.836L839.198,624.836C837.965,624.836 836.965,623.838 836.965,622.603C836.965,621.369 837.965,620.37 839.198,620.37L1012.09,620.37C1029.05,620.37 1042.86,634.169 1042.86,651.133L1042.86,950.283C1042.86,951.518 1041.86,952.517 1040.62,952.517Z" style="fill:white;fill-rule:nonzero;"/>
                    <path d="M839.198,624.836L649.604,624.836C648.37,624.836 647.37,623.838 647.37,622.603C647.37,621.369 648.37,620.37 649.604,620.37L839.198,620.37C840.432,620.37 841.432,621.369 841.432,622.603C841.432,623.838 840.432,624.836 839.198,624.836Z" style="fill-rule:nonzero;"/>
                    <path d="M921.032,978.977L850.29,978.977C849.057,978.977 848.057,977.978 848.057,976.744C848.057,975.509 849.057,974.51 850.29,974.51L921.032,974.51C922.266,974.51 923.266,975.509 923.266,976.744C923.266,977.978 922.266,978.977 921.032,978.977Z" style="fill-rule:nonzero;"/>
                    <path d="M674.42,978.977L531.18,978.977C529.946,978.977 528.946,977.978 528.946,976.744C528.946,975.509 529.946,974.51 531.18,974.51L674.42,974.51C675.654,974.51 676.654,975.509 676.654,976.744C676.654,977.978 675.654,978.977 674.42,978.977Z" style="fill-rule:nonzero;"/>
                    <path d="M546.836,907.962L756.936,907.962L546.836,691.225L546.836,907.962ZM762.212,912.429L544.603,912.429C543.37,912.429 542.369,911.43 542.369,910.195L542.369,685.712C542.369,684.802 542.921,683.984 543.764,683.642C544.607,683.302 545.572,683.502 546.206,684.157L763.816,908.641C764.44,909.286 764.619,910.239 764.269,911.066C763.918,911.892 763.109,912.429 762.212,912.429Z" style="fill-rule:nonzero;"/>
                    <path d="M565.137,910.195C565.137,921.536 555.943,930.73 544.603,930.73C533.262,930.73 524.068,921.536 524.068,910.195C524.068,898.854 533.262,889.661 544.603,889.661C555.943,889.661 565.137,898.854 565.137,910.195Z" style="fill:#706076;fill-rule:nonzero;stroke:white;stroke-width:1px;"/>
                    <path d="M782.747,910.195C782.747,921.536 773.553,930.73 762.212,930.73C750.871,930.73 741.678,921.536 741.678,910.195C741.678,898.854 750.871,889.661 762.212,889.661C773.553,889.661 782.747,898.854 782.747,910.195Z" style="fill:#706076;fill-rule:nonzero;stroke:white;stroke-width:1px;"/>
                    <path d="M565.137,685.712C565.137,697.054 555.943,706.247 544.603,706.247C533.262,706.247 524.068,697.054 524.068,685.712C524.068,674.372 533.262,665.178 544.603,665.178C555.943,665.178 565.137,674.372 565.137,685.712Z" style="fill:#706076;fill-rule:nonzero;stroke:white;stroke-width:1px;"/>
                    <path d="M601.6,1525.19C574.105,1525.19 551.737,1547.56 551.737,1575.05L551.737,1916.98C551.737,1944.48 574.105,1966.85 601.6,1966.85L846.232,1966.85C873.727,1966.85 896.095,1944.48 896.095,1916.98L896.095,1575.05C896.095,1547.56 873.727,1525.19 846.232,1525.19L601.6,1525.19ZM846.232,1971.31L601.6,1971.31C571.642,1971.31 547.27,1946.94 547.27,1916.98L547.27,1575.05C547.27,1545.1 571.642,1520.72 601.6,1520.72L846.232,1520.72C876.19,1520.72 900.562,1545.1 900.562,1575.05L900.562,1916.98C900.562,1946.94 876.19,1971.31 846.232,1971.31Z" style="fill-rule:nonzero;"/>
                    <rect x="590.972" y="1650.45" width="75.985" height="249.71" style="fill:#706076;stroke:white;stroke-width:4px;"/>
                    <rect x="685.923" y="1581.54" width="75.986" height="318.62" style="fill:#706076;stroke:white;stroke-width:4px;"/>
                    <rect x="780.875" y="1751.29" width="75.985" height="148.87" style="fill:#706076;stroke:white;stroke-width:4px;"/>
                    <path d="M1829.79,1328.76C1829.22,1328.76 1828.65,1328.54 1828.21,1328.11C1827.34,1327.23 1827.34,1325.82 1828.21,1324.95L2017.59,1135.57C2018.46,1134.7 2019.87,1134.7 2020.75,1135.57C2021.62,1136.44 2021.62,1137.86 2020.75,1138.73L1831.37,1328.11C1830.93,1328.54 1830.36,1328.76 1829.79,1328.76Z" style="fill-rule:nonzero;"/>
                    <path d="M1627.41,1531.14C1626.83,1531.14 1626.26,1530.92 1625.83,1530.49C1624.95,1529.62 1624.95,1528.2 1625.83,1527.33L1748.53,1404.63C1749.4,1403.75 1750.82,1403.75 1751.69,1404.63C1752.56,1405.5 1752.56,1406.91 1751.69,1407.79L1628.99,1530.49C1628.55,1530.92 1627.98,1531.14 1627.41,1531.14Z" style="fill-rule:nonzero;"/>
                    <path d="M1940.36,1119.96C1939.79,1119.96 1939.22,1119.74 1938.78,1119.3C1937.91,1118.43 1937.91,1117.02 1938.78,1116.15L2019.17,1035.76C2034.28,1020.64 2034.28,996.05 2019.17,980.936C2011,972.772 2006.51,961.915 2006.51,950.368C2006.51,938.822 2011,927.964 2019.17,919.801L2129.58,809.392C2130.45,808.52 2131.86,808.52 2132.74,809.392C2133.61,810.265 2133.61,811.678 2132.74,812.55L2022.33,922.959C2015.01,930.281 2010.97,940.015 2010.97,950.368C2010.97,960.722 2015.01,970.456 2022.33,977.777C2039.18,994.632 2039.18,1022.06 2022.33,1038.91L1941.94,1119.3C1941.5,1119.74 1940.93,1119.96 1940.36,1119.96Z" style="fill-rule:nonzero;"/>
                    <path d="M1435.79,1008.84C1435.22,1008.84 1434.65,1008.62 1434.21,1008.18C1433.34,1007.31 1433.34,1005.9 1434.21,1005.02L1624.39,814.84C1625.27,813.968 1626.68,813.968 1627.55,814.84C1628.42,815.713 1628.42,817.126 1627.55,817.999L1437.37,1008.18C1436.93,1008.62 1436.36,1008.84 1435.79,1008.84Z" style="fill-rule:nonzero;"/>
                    <path d="M1135.83,553.702C1135.26,553.702 1134.69,553.484 1134.25,553.047C1133.38,552.175 1133.38,550.762 1134.25,549.889L1288.32,395.827C1289.19,394.955 1290.6,394.955 1291.47,395.827C1292.35,396.7 1292.35,398.113 1291.47,398.985L1137.41,553.047C1136.98,553.484 1136.4,553.702 1135.83,553.702Z" style="fill-rule:nonzero;"/>
                    <path d="M1900.41,1181.62C1887.42,1181.62 1876.86,1171.08 1876.86,1158.11C1876.86,1145.14 1887.42,1134.6 1900.41,1134.6C1901.64,1134.6 1902.64,1135.6 1902.64,1136.83C1902.64,1138.06 1901.64,1139.06 1900.41,1139.06C1889.89,1139.06 1881.33,1147.61 1881.33,1158.11C1881.33,1168.61 1889.89,1177.16 1900.41,1177.16C1910.93,1177.16 1919.49,1168.61 1919.49,1158.11C1919.49,1156.88 1920.49,1155.88 1921.72,1155.88C1922.95,1155.88 1923.95,1156.88 1923.95,1158.11C1923.95,1171.08 1913.39,1181.62 1900.41,1181.62Z" style="fill-rule:nonzero;"/>
                    <path d="M1595.51,970.746C1594.93,970.746 1594.36,970.527 1593.93,970.091L1584.2,960.349C1583.32,959.474 1583.32,958.061 1584.2,957.188C1585.07,956.32 1586.48,956.318 1587.36,957.19L1597.09,966.933C1597.96,967.808 1597.96,969.221 1597.08,970.093C1596.65,970.527 1596.08,970.746 1595.51,970.746Z" style="fill-rule:nonzero;"/>
                    <path d="M1629.56,1004.84C1628.99,1004.84 1628.42,1004.63 1627.98,1004.19L1618.25,994.447C1617.38,993.572 1617.38,992.159 1618.25,991.287C1619.13,990.418 1620.54,990.417 1621.41,991.289L1631.14,1001.03C1632.01,1001.91 1632.01,1003.32 1631.14,1004.19C1630.7,1004.63 1630.13,1004.84 1629.56,1004.84Z" style="fill-rule:nonzero;"/>
                    <path d="M1585.78,1004.84C1585.2,1004.84 1584.63,1004.63 1584.2,1004.19C1583.32,1003.32 1583.32,1001.91 1584.2,1001.03L1593.93,991.289C1594.8,990.414 1596.21,990.417 1597.08,991.287C1597.96,992.159 1597.96,993.572 1597.09,994.447L1587.36,1004.19C1586.92,1004.63 1586.35,1004.84 1585.78,1004.84Z" style="fill-rule:nonzero;"/>
                    <path d="M1619.83,970.746C1619.26,970.746 1618.69,970.527 1618.25,970.093C1617.38,969.221 1617.38,967.808 1618.25,966.933L1627.98,957.19C1628.85,956.316 1630.27,956.318 1631.14,957.188C1632.01,958.061 1632.01,959.474 1631.14,960.349L1621.41,970.091C1620.98,970.527 1620.41,970.746 1619.83,970.746Z" style="fill-rule:nonzero;"/>
                    <path d="M1251.04,488.879C1250.47,488.879 1249.9,488.661 1249.46,488.225C1248.59,487.353 1248.59,485.939 1249.46,485.066L1365.18,369.347C1366.05,368.475 1367.47,368.475 1368.34,369.347C1369.21,370.22 1369.21,371.633 1368.34,372.505L1252.62,488.225C1252.18,488.661 1251.61,488.879 1251.04,488.879Z" style="fill-rule:nonzero;"/>
                    <path d="M1250,1994.65C1254.37,1955.71 1262.03,1759.63 1262.03,1759.63" style="fill:none;stroke:white;stroke-width:4px;stroke-linecap:round;stroke-miterlimit:1.5;"/>
                </g>
            </g>
        </g>
    </g>
</svg>
