<svg width="10417" height="10417" viewBox="0 0 10417 10417" fill="none" xmlns="http://www.w3.org/2000/svg">

<g id="heroprofile 1" clip-path="url(#clip0_0_1)">
<path id="Vector" d="M6993.65 8440.8C6853.08 8340.34 6707.58 8246.67 6559.73 8157.38C6259.65 7976.05 5948.49 7814.01 5635.15 7656.96C5470.36 7574.34 5301.15 7499.63 5133.61 7422.76C4965.07 7345.42 4796.19 7268.76 4627.28 7192.17C4472.94 7122.17 4318.61 7052.17 4164.44 6981.8C3651.07 5892.13 3084.32 4656.8 3153.86 4656.8L8412.59 4507.63C8536.99 4507.63 8638.2 4608.84 8638.2 4733.21V8384.92C8638.2 8509.34 8536.99 8610.55 8412.59 8610.55L6862.1 8620.55C6782.52 8562.13 7073.9 8498.17 6993.65 8440.8Z" fill="#706076" stroke="white" stroke-width="16.6667" stroke-miterlimit="2" stroke-linejoin="round"/>
<path id="Vector_2" d="M2979.07 4520.38H8305.26C8422.82 4520.38 8518.12 4615.67 8518.12 4733.21V8384.92C8518.12 8502.47 8422.82 8597.8 8305.26 8597.8H2979.07C2861.53 8597.8 2766.24 8502.47 2766.24 8384.92V4733.21C2766.24 4615.67 2861.53 4520.38 2979.07 4520.38Z" fill="white"/>
<path id="Vector_3" d="M8305.26 4529.67C8417.5 4529.67 8508.81 4621 8508.81 4733.21V8384.92C8508.81 8497.17 8417.5 8588.47 8305.26 8588.47H2979.07C2866.86 8588.47 2775.53 8497.17 2775.53 8384.92V4733.21C2775.53 4621 2866.86 4529.67 2979.07 4529.67H8305.26ZM2979.07 8607.09H8305.26C8427.76 8607.09 8527.42 8507.42 8527.42 8384.92V4733.21C8527.42 4610.71 8427.76 4511.05 8305.26 4511.05H2979.07C2856.57 4511.05 2756.9 4610.71 2756.9 4733.21V8384.92C2756.9 8507.42 2856.57 8607.09 2979.07 8607.09Z" fill="black"/>
<path id="Vector_4" d="M6151.31 8614.05H8325.62C8413.28 8614.05 8484.59 8685.38 8484.59 8773.01C8484.59 8860.67 8413.28 8932.01 8325.62 8932.01H6086.37C5998.7 8932.01 6151.31 8614.05 6151.31 8614.05Z" fill="#706076" stroke="white" stroke-width="16.6667" stroke-miterlimit="2" stroke-linejoin="round"/>
<path id="Vector_5" d="M1747.61 8614.05H6880.24C6968.04 8614.05 7039.22 8685.22 7039.22 8773.01C7039.22 8860.8 6968.04 8932.01 6880.24 8932.01H1747.61C1659.82 8932.01 1588.65 8860.8 1588.65 8773.01C1588.65 8685.22 1659.82 8614.05 1747.61 8614.05Z" fill="white"/>
<path id="Vector_6" d="M6880.24 8623.34C6962.77 8623.34 7029.91 8690.51 7029.91 8773.01C7029.91 8855.55 6962.77 8922.67 6880.24 8922.67H1747.61C1665.07 8922.67 1597.94 8855.55 1597.94 8773.01C1597.94 8690.51 1665.07 8623.34 1747.61 8623.34H6880.24ZM1747.61 8941.3H6880.24C6973.03 8941.3 7048.52 8865.8 7048.52 8773.01C7048.52 8680.22 6973.03 8604.76 6880.24 8604.76H1747.61C1654.82 8604.76 1579.32 8680.22 1579.32 8773.01C1579.32 8865.8 1654.82 8941.3 1747.61 8941.3Z" fill="black"/>
<path id="Vector_7" d="M3157.61 4825.46H8126.75C8178.31 4825.46 8220.11 4867.25 8220.11 4918.84V4987.55C8220.11 5039.09 8178.31 5080.88 8126.75 5080.88H3157.61C3106.03 5080.88 3064.24 5039.09 3064.24 4987.55V4918.84C3064.24 4867.25 3106.03 4825.46 3157.61 4825.46Z" fill="#706076" stroke="white" stroke-width="12.5" stroke-miterlimit="2" stroke-linejoin="round"/>
<path id="Vector_8" d="M3181.69 4953.17C3181.69 4987.13 3209.24 5014.67 3243.19 5014.67C3277.15 5014.67 3304.69 4987.13 3304.69 4953.17C3304.69 4919.21 3277.15 4891.67 3243.19 4891.67C3209.24 4891.67 3181.69 4919.21 3181.69 4953.17Z" fill="white"/>
<g id="Vector_9" filter="url(#filter0_i_0_1)">
<path d="M3064.24 5200.75H8218V8301.59H3064.24V5200.75Z" fill="white"/>
</g>
<path id="Vector_10" d="M8208.69 8292.26H3073.53V5210.09H8208.69V8292.26ZM3064.24 8310.88H8218C8223.14 8310.88 8227.3 8306.72 8227.3 8301.59V5200.75C8227.3 5195.63 8223.14 5191.46 8218 5191.46H3064.24C3059.07 5191.46 3054.9 5195.63 3054.9 5200.75V8301.59C3054.9 8306.72 3059.07 8310.88 3064.24 8310.88Z" fill="black"/>
<g id="Coffee" filter="url(#filter1_d_0_1)">
<path id="Vector_11" d="M1759.54 7447.92H3060.83L2859.96 8994.71C2561.71 9058.29 2261.92 9060.25 1960.42 8994.71L1759.54 7447.92Z" fill="#706076" stroke="white" stroke-width="10.4167" stroke-miterlimit="2" stroke-linejoin="round"/>
<path id="Vector_12" d="M2922.67 8838L3152.26 7070.16H1668.12L1897.67 8838.01C2241.22 8912.2 2582.83 8910 2922.67 8838Z" fill="white" stroke="black" stroke-width="8.33"/>
<path id="Vector_13" d="M1757.42 6886.29H3062.96L3109.92 7040.75H1710.46L1757.42 6886.29Z" fill="#706076" stroke="white" stroke-width="16.6667" stroke-miterlimit="2" stroke-linejoin="round"/>
<path id="Vector_14" d="M3097.33 7031.42H1723L1764.29 6895.58H3056.08L3097.33 7031.42ZM1710.46 7050.04H3109.92C3112.83 7050.04 3115.63 7048.63 3117.38 7046.29C3119.13 7043.92 3119.67 7040.88 3118.79 7038.04L3071.88 6883.58C3070.67 6879.67 3067.08 6877 3062.96 6877H1757.42C1753.29 6877 1749.71 6879.67 1748.5 6883.58L1701.54 7038.04C1700.71 7040.88 1701.21 7043.92 1703 7046.29C1704.75 7048.63 1707.5 7050.04 1710.46 7050.04Z" fill="black"/>
<path id="Vector_15" d="M1588.29 7040.75H3232.04V7207.71H1588.29V7040.75Z" fill="#706076"/>
<path id="Vector_16" d="M3222.75 7198.42H1597.62V7050.04H3222.75V7198.42ZM1588.29 7217.04H3232.04C3237.21 7217.04 3241.38 7212.88 3241.38 7207.71V7040.75C3241.38 7035.58 3237.21 7031.42 3232.04 7031.42H1588.29C1583.17 7031.42 1579 7035.58 1579 7040.75V7207.71C1579 7212.88 1583.17 7217.04 1588.29 7217.04Z" fill="black"/>
<path id="Vector_17" d="M3102.54 7649.04L2984.46 8555.33C2984.46 8555.33 2395.29 8735.04 1833 8555.33C1768.33 8116.63 1718.58 7649.04 1718.58 7649.04C1718.58 7649.04 2401.63 7741.75 3102.54 7649.04Z" fill="#706076" stroke="white" stroke-width="8.33334" stroke-miterlimit="2" stroke-linejoin="round"/>
<path id="Vector_18" d="M2265.58 8400.46C2266.21 8400.46 2266.79 8400.46 2267.42 8400.42C2294.63 8399.25 2309.33 8373.08 2323.63 8347.79C2336.67 8324.63 2349 8302.75 2368.58 8300.67C2391.13 8298.33 2412.38 8323.42 2432.96 8347.67C2455.42 8374.21 2476.63 8399.29 2502.92 8392.88C2522.83 8388.04 2529.96 8368.58 2536.83 8349.75C2543.5 8331.46 2549.83 8314.21 2566.29 8307.63C2582.08 8301.33 2596.29 8308.58 2620.08 8321.92C2639.46 8332.79 2661.46 8345.17 2690 8348.83C2740.83 8355.42 2796.17 8331.21 2854.71 8277.04C2858.46 8273.54 2858.71 8267.67 2855.21 8263.88C2851.71 8260.08 2845.83 8259.88 2842.04 8263.38C2787.79 8313.67 2737.42 8336.21 2692.38 8330.38C2667.42 8327.17 2647.08 8315.75 2629.21 8305.71C2606.04 8292.71 2584.17 8280.46 2559.42 8290.33C2535.21 8300 2526.42 8324.04 2519.33 8343.33C2512.75 8361.38 2508.08 8372.46 2498.54 8374.79C2483.42 8378.42 2465 8356.71 2447.17 8335.67C2424.58 8309 2398.92 8278.67 2366.63 8282.17C2337.54 8285.25 2321.5 8313.63 2307.42 8338.63C2295.08 8360.46 2283.46 8381.08 2266.63 8381.83C2249.63 8382.25 2235.71 8363 2220.79 8342.29C2202.75 8317.25 2182.29 8288.92 2149.71 8286.21C2118.96 8283.67 2087 8305.04 2054.38 8349.67C2051.33 8353.83 2052.25 8359.67 2056.42 8362.67C2060.54 8365.71 2066.38 8364.79 2069.42 8360.67C2097.96 8321.58 2124.46 8302.75 2148.17 8304.75C2172.21 8306.75 2189.25 8330.33 2205.71 8353.17C2222.46 8376.42 2239.79 8400.46 2265.58 8400.46Z" fill="white"/>
</g>
<path id="Vector_19" d="M2396.53 5821.46C2413.36 5838.42 2430.65 5854.8 2446.73 5872.34C2455.03 5880.84 2462.9 5889.71 2470.61 5898.75L2482.44 5912.05L2493.69 5925.84C2523.4 5962.59 2550.32 6001.92 2568.86 6044.67C2587.73 6087.05 2596.44 6134.42 2586.03 6178.92C2576.86 6223.75 2548.61 6262.46 2515.53 6295.42C2482.36 6328.8 2444.44 6358.09 2409.61 6391.71C2392.15 6408.51 2375.82 6426.84 2361.73 6447.01C2347.57 6467.09 2336.61 6489.76 2329.94 6513.63C2316.4 6561.63 2323.07 6613.38 2342.4 6657.92C2361.44 6702.88 2390.69 6742.21 2423.61 6777.05C2424.78 6778.3 2426.73 6778.38 2427.98 6777.17C2429.19 6776.05 2429.28 6774.17 2428.19 6772.92C2397.23 6736.96 2369.61 6697.59 2352.69 6653.76C2344.23 6631.92 2338.61 6609.09 2336.73 6585.96C2334.94 6562.92 2337.07 6539.55 2343.73 6517.55C2350.32 6495.51 2360.82 6474.71 2374.53 6456.01C2388.11 6437.17 2404.23 6420.13 2421.23 6403.84C2455.36 6371.21 2493.53 6342.17 2528.03 6307.92C2545.32 6290.88 2561.53 6272.26 2574.98 6251.42C2588.57 6230.71 2598.78 6207.38 2604.15 6182.88C2609.73 6158.42 2609.98 6132.88 2606.11 6108.34C2602.36 6083.76 2594.74 6060.05 2584.57 6037.8C2582.28 6032.09 2579.57 6026.59 2576.69 6021.25C2573.82 6015.84 2571.19 6010.34 2568.15 6005.05C2561.82 5994.67 2555.82 5984.05 2548.61 5974.25L2538.19 5959.38C2534.61 5954.46 2530.78 5949.8 2527.11 5945.01L2515.86 5930.8L2504.03 5917.13L2492.15 5903.5L2479.73 5890.42C2471.44 5881.67 2462.98 5873.13 2454.15 5864.96C2437.03 5848.13 2418.82 5832.51 2400.65 5816.88C2399.36 5815.76 2397.4 5815.88 2396.32 5817.17C2395.23 5818.42 2395.32 5820.25 2396.44 5821.38L2396.53 5821.46Z" fill="white"/>
<path id="Vector_20" d="M2327.53 6025.13C2340.36 6058.59 2347.9 6094.09 2346.65 6129.46C2346.49 6147.17 2342.65 6164.46 2338.74 6181.5C2335.78 6189.75 2333.61 6198.25 2330.07 6206.25L2324.44 6218.13C2322.61 6222.13 2320.78 6226.09 2318.32 6229.71C2300.78 6260.25 2276.11 6286.09 2250.61 6311.3C2225.07 6336.46 2197.48 6360.67 2174.57 6390.3C2151.82 6419.46 2133.9 6455.92 2133.36 6494.67C2131.82 6533.17 2143.9 6570.21 2160.69 6603.05C2195.15 6669.09 2246.82 6722.34 2300.94 6770.34C2302.19 6771.46 2304.11 6771.34 2305.19 6770.09C2306.23 6768.92 2306.19 6767.13 2305.15 6766.01C2280.15 6739.92 2255.82 6713.25 2233.53 6685.17C2211.11 6657.21 2191.19 6627.3 2175.9 6595.55C2167.94 6579.76 2162.03 6563.21 2157.65 6546.42C2153.11 6529.67 2151.03 6512.42 2151.78 6495.38C2152.82 6461.05 2167.53 6428.84 2188.78 6401.17C2209.94 6373.21 2236.82 6349.09 2262.53 6323.34C2288.36 6297.75 2313.19 6269.67 2331.07 6236.84C2349.11 6204.17 2358.4 6166.59 2357.94 6129.59C2357.53 6092.46 2348.36 6055.96 2333.11 6022.8C2332.4 6021.3 2330.61 6020.63 2329.11 6021.34C2327.65 6022 2326.98 6023.67 2327.53 6025.13Z" fill="white"/>
<path id="Vector_21" d="M3024.57 1654.35L2993.03 1622.78L2961.44 1654.35V1627.56L2993.03 1596.01L3024.57 1627.56V1654.35Z" fill="black"/>
<path id="Vector_22" d="M2063.82 2423.32L2032.23 2391.77L2063.82 2360.22H2037.03L2005.44 2391.77L2037.03 2423.32H2063.82Z" fill="black"/>
<g id="Vector_23">
<path d="M4120.49 1414.45C4180.9 1414.45 4230.07 1463.62 4230.07 1524.05V2993.69C4230.07 3054.12 4180.9 3103.29 4120.49 3103.29H1865.57C1805.11 3103.29 1755.94 3054.12 1755.94 2993.69V1524.05C1755.94 1463.62 1805.11 1414.45 1865.57 1414.45H4120.49ZM1865.57 3121.9H4120.49C4191.15 3121.9 4248.69 3064.39 4248.69 2993.69V1524.05C4248.69 1453.35 4191.15 1395.83 4120.49 1395.83H1865.57C1794.86 1395.83 1737.32 1453.35 1737.32 1524.05V2993.69C1737.32 3064.39 1794.86 3121.9 1865.57 3121.9Z" fill="white"/>
<path d="M2993.03 2902.99C2998.15 2902.99 3002.32 2898.83 3002.32 2893.69V1617.28C3002.32 1612.14 2998.15 1607.98 2993.03 1607.98C2987.86 1607.98 2983.69 1612.14 2983.69 1617.28V2893.69C2983.69 2898.83 2987.86 2902.99 2993.03 2902.99Z" fill="white"/>
<path d="M2026.73 2401.08H3980.57C3985.69 2401.08 3989.86 2396.91 3989.86 2391.77C3989.86 2386.63 3985.69 2382.47 3980.57 2382.47H2026.73C2021.57 2382.47 2017.4 2386.63 2017.4 2391.77C2017.4 2396.91 2021.57 2401.08 2026.73 2401.08Z" fill="white"/>
<path d="M2988.61 2817.11C3211.99 2817.11 3393.74 2635.37 3393.74 2411.98V2177.23C3393.74 1964.1 3567.15 1790.69 3780.28 1790.69H3980.57C3985.69 1790.69 3989.86 1786.53 3989.86 1781.39C3989.86 1776.24 3985.69 1772.08 3980.57 1772.08H3780.28C3556.9 1772.08 3375.15 1953.83 3375.15 2177.23V2411.98C3375.15 2625.11 3201.74 2798.5 2988.61 2798.5C2775.49 2798.5 2602.07 2625.11 2602.07 2411.98V2177.23C2602.07 1953.83 2420.32 1772.08 2196.94 1772.08H2079.57C2074.44 1772.08 2070.28 1776.24 2070.28 1781.39C2070.28 1786.53 2074.44 1790.69 2079.57 1790.69H2196.94C2410.07 1790.69 2583.44 1964.1 2583.44 2177.23V2411.98C2583.44 2635.37 2765.19 2817.11 2988.61 2817.11Z" fill="white"/>
</g>
<path id="Vector_24" d="M6874.82 5556.3C6875.12 5556.3 6875.43 5556.3 6875.74 5556.25C6880.85 5555.75 6884.59 5551.21 6884.09 5546.09L6857.39 5274.75C6856.89 5269.63 6852.42 5266 6847.22 5266.38C6842.11 5266.88 6838.37 5271.46 6838.87 5276.59L6865.57 5547.92C6866.04 5552.71 6870.09 5556.3 6874.82 5556.3Z" fill="black"/>
<path id="Vector_25" d="M2987.94 3648.05H2671.61L2733.86 3444.66C2739.94 3424.73 2729.36 3403.69 2709.69 3396.75L2229.49 3226.91C2227.9 3226.34 2227.32 3225.08 2227.15 3224.38C2226.94 3223.67 2226.82 3222.28 2227.94 3220.95C2238.4 3208.7 2254.57 3191.62 2271.99 3179.87C2274.86 3177.94 2276.4 3174.59 2276.03 3171.15C2275.65 3167.72 2273.4 3164.77 2270.19 3163.51L2133.65 3109.54C2130.28 3108.21 2127.65 3105.47 2126.48 3102.03C2125.44 3098.96 2125.65 3095.61 2127.03 3092.71C2164.28 3058.13 2207.57 3055.56 2265.24 3062.68C2267.32 3062.91 2269.49 3062.47 2271.28 3061.34L2291.32 3048.82C2332.78 3022.9 2383.82 3014.72 2431.32 3026.39L2827.07 3123.57C2837.99 3126.29 2849.36 3123.15 2857.4 3115.25C2865.4 3107.37 2868.69 3096.12 2866.19 3085.15C2858.65 3051.96 2847.36 3002.15 2838.61 2962.8C2830.74 2927.53 2843.82 2906.74 2856.15 2895.51C2857.94 2893.86 2860.32 2892.99 2862.78 2893.18C2865.24 2893.32 2867.53 2894.45 2869.19 2896.34C2967.53 3009.03 3071.19 3155.09 3067.32 3227.09C3062.03 3325.79 2999.07 3600.1 2987.94 3648.05ZM2659.03 3666.67H2995.32C2999.65 3666.67 3003.4 3663.69 3004.4 3659.49C3007.49 3646.4 3080.03 3337.52 3085.9 3228.09C3091.15 3130.48 2932.07 2940.12 2883.19 2884.11C2878.24 2878.41 2871.36 2875.04 2863.82 2874.6C2856.44 2874.03 2849.19 2876.7 2843.61 2881.74C2830.53 2893.65 2810.11 2920.54 2820.44 2966.83C2829.19 3006.22 2840.49 3056.07 2848.07 3089.28C2849.11 3093.98 2847.78 3098.6 2844.36 3101.99C2840.9 3105.37 2836.19 3106.66 2831.49 3105.5L2435.78 3008.32C2383.44 2995.46 2327.15 3004.47 2281.44 3033.04L2264.19 3043.82C2203.94 3036.67 2155.07 3040.49 2113.15 3080.2C2112.53 3080.79 2111.99 3081.47 2111.57 3082.2C2106.9 3090.02 2105.94 3099.44 2108.86 3108.04C2111.82 3116.65 2118.36 3123.52 2126.82 3126.85L2247.94 3174.72C2234.32 3186.02 2222.28 3198.93 2213.78 3208.86C2208.99 3214.47 2207.28 3222.07 2209.15 3229.18C2211.07 3236.28 2216.36 3241.99 2223.28 3244.45L2703.49 3414.29C2713.74 3417.91 2719.24 3428.85 2716.07 3439.21L2650.11 3654.63C2649.24 3657.46 2649.78 3660.52 2651.53 3662.89C2653.28 3665.27 2656.07 3666.67 2659.03 3666.67Z" fill="black"/>
<path id="Vector_26" d="M6275.95 5958.21C6274.85 5958.21 6273.73 5958.38 6272.65 5958.8C6269.08 5960.17 6266.7 5963.55 6266.65 5967.38C6258.14 6562.76 6205.58 7034.92 6162.99 7326.21C6122.25 7604.84 5932.36 7835.71 5667.45 7928.8C5430.86 8011.92 5162.07 8058.96 4868.45 8068.71C4528.15 8079.92 4240.82 8019.92 4014.65 7890.26C3850.65 7796.21 3757.99 7613.71 3778.61 7425.34L3975.03 5630.71C3975.32 5628 3974.4 5625.3 3972.53 5623.34C3970.65 5621.34 3968.03 5620.3 3965.32 5620.42C3960.36 5620.67 3464.69 5642.34 2999.15 5432.92C2661.65 5281.13 2477.82 4973.05 2452.78 4517.17C2432.57 4150.19 2524.07 3791.17 2564.36 3653.83C2574.28 3619.91 2605.9 3596.22 2641.19 3596.22H3006.99C3031.11 3596.22 3053.19 3607.32 3067.57 3626.68C3082.03 3646.14 3086.32 3670.64 3079.32 3693.9C2981.61 4018.23 2991.19 4289.67 3106.94 4478.84C3193.99 4621.05 3341.32 4714.67 3533.07 4749.55C3777.32 4793.96 3968.19 4717.38 4085.32 4645.3C4254.19 4541.38 4449.61 4478.84 4650.49 4464.42C5075.45 4433.88 5629.49 4399.34 5855.7 4408.17C6126.58 4418.79 6274.4 4645.59 6404.82 4845.71C6446.43 4909.59 6485.74 4969.88 6526.18 5018.05C6690.22 5213.46 6838.1 5281.34 6844.32 5284.13C6847.36 5285.5 6850.91 5285.17 6853.61 5283.17C6856.31 5281.21 6857.75 5277.96 6857.38 5274.63L6791.63 4680.38C6789.51 4661.21 6795.22 4642.63 6807.72 4627.96C6820.18 4613.38 6837.62 4604.8 6856.82 4603.88C6947.06 4599.55 7112.94 4591.42 7209.99 4585.55C7253.51 4582.8 7293.04 4609.88 7306.65 4651C7377.73 4865.8 7592.94 5594.92 7377.66 5959.46C7312.3 6070.13 7211.71 6138.84 7078.67 6163.63C6562.45 6259.88 6285.56 5964.21 6282.83 5961.21C6281.03 5959.25 6278.52 5958.21 6275.95 5958.21ZM4788.65 8088.63C4815.15 8088.63 4841.95 8088.21 4869.07 8087.3C5164.57 8077.51 5435.24 8030.09 5673.61 7946.34C5945.07 7850.96 6139.66 7614.38 6181.4 7328.92C6223.56 7040.59 6275.47 6575.42 6284.93 5989.21C6351.42 6050.17 6625.55 6267 7082.08 6181.92C7220.63 6156.09 7325.47 6084.42 7393.68 5968.92C7612.96 5597.63 7396.03 4861.84 7324.31 4645.17C7308.05 4596 7260.38 4563.79 7208.88 4566.96C7111.92 4572.84 6946.12 4580.96 6855.93 4585.3C6831.54 4586.46 6809.4 4597.34 6793.56 4615.88C6777.7 4634.5 6770.44 4658.13 6773.12 4682.42L6836.99 5259.55C6795.22 5237.09 6671.85 5162.63 6540.43 5006.09C6500.72 4958.8 6461.7 4898.92 6420.41 4835.55C6294.11 4641.75 6136.92 4400.55 5856.4 4389.59C5629.45 4380.71 5074.61 4415.3 4649.15 4445.84C4445.32 4460.46 4246.99 4523.96 4075.57 4629.46C3961.19 4699.84 3774.86 4774.59 3536.4 4731.21C3350.03 4697.34 3207.03 4606.67 3122.82 4469.13C3009.9 4284.59 3001.03 4018.38 3097.11 3699.26C3105.86 3670.32 3100.53 3639.81 3082.49 3615.57C3064.57 3591.44 3037.03 3577.61 3006.99 3577.61H2641.19C2597.69 3577.61 2558.74 3606.79 2546.49 3648.6C2505.94 3786.85 2413.82 4148.33 2434.19 4518.17C2459.65 4981.55 2647.19 5295 2991.53 5449.92C3422.82 5643.88 3879.61 5641.3 3955.36 5639.38L3760.07 7423.3C3738.65 7619.05 3834.94 7808.67 4005.4 7906.38C4216.53 8027.46 4479.7 8088.63 4788.65 8088.63Z" fill="black"/>
<path id="Vector_27" d="M7305.56 4250.67V4418.5C7305.56 4490.96 7263.05 4557.5 7197.28 4587.92L7182.4 4594.84C7095.01 4635.3 6994.77 4627.88 6914.27 4575C6876.61 4550.25 6851.81 4510.42 6846.21 4465.71L6829.13 4329.09C6823.6 4284.79 6837.59 4240.34 6867.51 4207.17L6910.26 4159.82C6911.8 4158.12 6912.66 4155.89 6912.66 4153.59V3834.62C6912.66 3808.75 6933.69 3787.71 6959.56 3787.71C6985.41 3787.71 7006.45 3808.75 7006.45 3834.62V4178.04C7006.45 4182.42 7009.5 4186.21 7013.78 4187.17L7305.56 4250.67ZM7065.9 4639.3C7108.03 4639.3 7150.37 4630.17 7190.22 4611.71L7205.1 4604.84C7277.43 4571.34 7324.17 4498.21 7324.17 4418.5V4243.17C7324.17 4238.79 7321.12 4235 7316.84 4234.04L7025.06 4170.54V3834.62C7025.06 3798.49 6995.68 3769.1 6959.56 3769.1C6923.43 3769.1 6894.04 3798.49 6894.04 3834.62V4150.01L6853.7 4194.71C6820.14 4231.88 6804.46 4281.71 6810.67 4331.42L6827.75 4468C6834.01 4518.13 6861.83 4562.8 6904.06 4590.55C6953.27 4622.88 7009.4 4639.3 7065.9 4639.3Z" fill="black"/>
<path id="Vector_28" d="M7062.08 4268.34H7098.67C7121.74 4268.34 7140.44 4249.67 7140.44 4226.59V4098.41C7140.44 4075.34 7121.74 4056.64 7098.67 4056.64H7073.23C7044.01 4056.64 7020.31 4080.33 7020.31 4109.55V4226.59C7020.31 4249.67 7039.01 4268.34 7062.08 4268.34Z" fill="white"/>
<path id="Vector_29" d="M7182.2 4294.67H7189.56C7212.63 4294.67 7231.33 4275.96 7231.33 4252.92V4127.98C7231.33 4104.91 7212.63 4086.21 7189.56 4086.21H7182.2C7159.14 4086.21 7140.44 4104.91 7140.44 4127.98V4252.92C7140.44 4275.96 7159.14 4294.67 7182.2 4294.67Z" fill="white"/>
<path id="Vector_30" d="M7273.1 4327.59C7296.16 4327.59 7314.86 4308.88 7314.86 4285.84V4162.2C7314.86 4139.14 7296.16 4120.44 7273.1 4120.44C7250.03 4120.44 7231.33 4139.14 7231.33 4162.2V4285.84C7231.33 4308.88 7250.03 4327.59 7273.1 4327.59Z" fill="white"/>
<path id="Vector_31" d="M7101.81 4493.75C7106.76 4493.75 7110.88 4489.84 7111.1 4484.88C7115.75 4380.55 7049.13 4337.96 7019.2 4324.17L7068.65 4274.96C7072.28 4271.34 7072.3 4265.42 7068.67 4261.8C7065.05 4258.13 7059.16 4258.13 7055.51 4261.75L6996.01 4321C6993.66 4323.34 6992.73 4326.75 6993.57 4329.92C6994.41 4333.13 6996.89 4335.67 7000.08 4336.55C7004.05 4337.67 7097.78 4365.59 7092.51 4484.05C7092.28 4489.17 7096.26 4493.5 7101.39 4493.75H7101.81Z" fill="black"/>
<path id="Vector_32" d="M5789.49 4405.21L5927.86 6358.13C5933.82 6442.42 5875.65 6516.75 5792.57 6531.09C5489.9 6583.25 4890.95 6650 4279.49 6511.38C4213.32 6496.38 4172.11 6432.92 4185.65 6366.96L4574.2 4472.21C4646.11 4462.42 5295.65 4376.79 5789.49 4405.21ZM5058.7 6612.42C5364.07 6612.42 5626.15 6578.63 5795.7 6549.42C5888.28 6533.46 5953.07 6450.67 5946.4 6356.84L5807.49 4395.75C5807.15 4391.09 5803.4 4387.38 5798.74 4387.13C5275.2 4355.46 4572.15 4453.67 4565.11 4454.67C4561.2 4455.21 4558.07 4458.17 4557.28 4462L4167.4 6363.21C4151.82 6439.21 4199.24 6512.25 4275.36 6529.55C4547.2 6591.17 4816.57 6612.42 5058.7 6612.42Z" fill="black"/>
<path id="Vector_33" d="M5387.07 3695.02C5407.24 3695.02 5439.78 3697.84 5456.45 3714.49C5464.61 3722.68 5467.86 3733.38 5466.36 3747.18C5459.15 3813.64 5354.53 3831.3 5353.49 3831.47C5350.9 3831.89 5348.65 3833.36 5347.2 3835.52C5345.78 3837.69 5345.32 3840.37 5345.95 3842.89L5481.07 4388.55C5484.57 4402.67 5482.28 4417.3 5474.57 4429.67C5466.9 4441.92 5454.99 4450.38 5440.9 4453.46C5230.03 4499.5 5099.78 4480.04 5040.95 4464.34C5035.24 4462.84 5031.11 4458.71 5029.61 4453.13C5028.07 4447.34 5029.78 4441.3 5034.15 4437C5106.86 4365.17 5121.78 4170.25 5121.45 4019.42C5121.45 4016.59 5120.15 4013.93 5117.95 4012.17C5115.74 4010.42 5112.86 4009.74 5110.11 4010.36C5060.03 4021.51 4993.45 4021.02 4960.65 3955.18C4940.53 3914.74 4933.74 3871.07 4936.4 3799.42C4936.7 3791.8 4930.65 3782.14 4919.11 3764.31C4911.86 3753.1 4898.53 3732.52 4898.53 3725.7C4930.95 3686.22 4953.07 3638.85 4962.45 3588.57C4974.61 3523.78 4987.61 3463.89 4993.53 3437.39C5110.61 3524.55 5238.11 3477.7 5265.9 3465.77C5379.03 3557.24 5359.61 3683.72 5359.4 3684.99C5358.95 3687.87 5359.82 3690.79 5361.82 3692.9C5363.82 3695.02 5366.7 3696.1 5369.61 3695.77C5369.82 3695.75 5376.86 3695.02 5387.07 3695.02ZM5197.15 4501.09C5263.65 4501.09 5345.61 4493.34 5444.9 4471.63C5463.9 4467.5 5480.07 4456.09 5490.36 4439.5C5500.74 4422.8 5503.86 4403.13 5499.15 4384.09L5366.36 3847.87C5395.32 3841.3 5477.53 3816.81 5484.86 3749.19C5486.99 3729.68 5481.82 3713.57 5469.57 3701.31C5445.53 3677.3 5400.24 3675.78 5379.03 3676.52C5381.65 3640.82 5379.9 3530.74 5272.95 3447.61C5270.15 3445.4 5266.28 3445.02 5263.07 3446.65C5261.61 3447.39 5118.65 3517.47 4993.61 3413.8C4991.15 3411.73 4987.78 3411.11 4984.7 3412.15C4981.65 3413.18 4979.32 3415.73 4978.61 3418.88C4978.45 3419.66 4960.49 3497.98 4944.15 3585.15C4935.24 3632.91 4914.11 3677.89 4883.03 3715.21C4882.65 3715.64 4882.36 3716.1 4882.07 3716.59C4875.11 3728.94 4885.53 3746.68 4903.49 3774.44C4909.28 3783.37 4917.2 3795.6 4917.82 3799.26C4915.03 3873.79 4922.36 3919.98 4944.03 3963.47C4972.36 4020.39 5028.49 4044.07 5102.82 4030.8C5102.4 4152.95 5090.61 4355.09 5021.07 4423.75C5011.9 4432.79 5008.36 4445.59 5011.61 4457.88C5014.82 4469.96 5023.99 4479.09 5036.11 4482.34C5074.07 4492.46 5127.03 4501.09 5197.15 4501.09Z" fill="black"/>
<path id="Vector_34" d="M5829.82 3968.82C5834.95 3968.82 5839.11 3964.66 5839.11 3959.52V2713.06C5839.11 2652.64 5888.28 2603.49 5948.7 2603.49H6669.08C6674.22 2603.49 6678.38 2599.33 6678.38 2594.18C6678.38 2589.04 6674.22 2584.88 6669.08 2584.88H5948.7C5878.03 2584.88 5820.49 2642.37 5820.49 2713.06V3959.52C5820.49 3964.66 5824.65 3968.82 5829.82 3968.82Z" fill="white"/>
<path id="Vector_35" d="M6669.08 2603.49H7459.06C7464.2 2603.49 7468.36 2599.33 7468.36 2594.18C7468.36 2589.04 7464.2 2584.88 7459.06 2584.88H6669.08C6663.94 2584.88 6659.77 2589.04 6659.77 2594.18C6659.77 2599.33 6663.94 2603.49 6669.08 2603.49Z" fill="#FFFDFD"/>
<path id="Vector_36" d="M6904.29 3792.48C6904.29 3839.74 6942.6 3878.04 6989.86 3878.04C7037.11 3878.04 7075.41 3839.74 7075.41 3792.48C7075.41 3745.23 7037.11 3706.92 6989.86 3706.92C6942.6 3706.92 6904.29 3745.23 6904.29 3792.48Z" fill="#706076" stroke="white" stroke-width="4.16667" stroke-miterlimit="2" stroke-linejoin="round"/>
<g id="Code" filter="url(#filter2_d_0_1)">
<path id="Vector_37" d="M7659.07 6354.96C7773.64 6354.96 7866.84 6448.17 7866.84 6562.71V7987.42C7866.84 8102.01 7773.64 8195.21 7659.07 8195.21H6639.77C6525.21 8195.21 6432.01 8102.01 6432.01 7987.42V6562.71C6432.01 6448.17 6525.21 6354.96 6639.77 6354.96H7659.07ZM6639.77 8213.8H7659.07C7783.9 8213.8 7885.45 8112.26 7885.45 7987.42V6562.71C7885.45 6437.92 7783.9 6336.34 7659.07 6336.34H6639.77C6514.95 6336.34 6413.4 6437.92 6413.4 6562.71V7987.42C6413.4 8112.26 6514.95 8213.8 6639.77 8213.8Z" fill="black"/>
<path id="Vector_38" d="M6786 6649L6786 6528L7789 6528L7789 6649L6786 6649Z" fill="#706076" stroke="white" stroke-width="16.6667" stroke-miterlimit="2" stroke-linejoin="round"/>
<path id="Vector_39" d="M6510 6800L6510 6679L7789 6679L7789 6800L6510 6800Z" fill="#706076" stroke="white" stroke-width="16.6667" stroke-miterlimit="2" stroke-linejoin="round"/>
<path id="Vector_40" d="M7191 6952L7191 6831L7789 6831L7789 6952L7191 6952Z" fill="#706076" stroke="white" stroke-width="16.6667" stroke-miterlimit="2" stroke-linejoin="round"/>
<path id="Vector_41" d="M6786 7103L6786 6982L7789 6982L7789 7103L6786 7103Z" fill="#706076" stroke="white" stroke-width="16.6667" stroke-miterlimit="2" stroke-linejoin="round"/>
<path id="Vector_42" d="M6510 7254L6510 7133L7789 7133L7789 7254L6510 7254Z" fill="#706076" stroke="white" stroke-width="16.6667" stroke-miterlimit="2" stroke-linejoin="round"/>
<path id="Vector_43" d="M7191 7406L7191 7285L7789 7285L7789 7406L7191 7406Z" fill="#706076" stroke="white" stroke-width="16.6667" stroke-miterlimit="2" stroke-linejoin="round"/>
<path id="Vector_44" d="M6786 7569L6786 7448L7789 7448L7789 7569L6786 7569Z" fill="#706076" stroke="white" stroke-width="16.6667" stroke-miterlimit="2" stroke-linejoin="round"/>
<path id="Vector_45" d="M6510 7720L6510 7599L7789 7599L7789 7720L6510 7720Z" fill="#706076" stroke="white" stroke-width="16.6667" stroke-miterlimit="2" stroke-linejoin="round"/>
<path id="Vector_46" d="M7191 7872L7191 7751L7789 7751L7789 7872L7191 7872Z" fill="#706076" stroke="white" stroke-width="16.6667" stroke-miterlimit="2" stroke-linejoin="round"/>
</g>
<path id="Vector_47" d="M2541.61 5536.5C2543.98 5536.5 2546.36 5535.59 2548.19 5533.8C2551.82 5530.13 2551.82 5524.25 2548.19 5520.63L1759.11 4731.55C1755.48 4727.92 1749.61 4727.92 1745.94 4731.55C1742.32 4735.17 1742.32 4741.09 1745.94 4744.71L2535.03 5533.8C2536.86 5535.59 2539.23 5536.5 2541.61 5536.5Z" fill="white"/>
<path id="Vector_48" d="M3384.86 6379.75C3387.28 6379.75 3389.65 6378.84 3391.44 6377.05C3395.11 6373.42 3395.11 6367.5 3391.44 6363.88L2880.19 5852.63C2876.57 5848.96 2870.65 5848.96 2867.03 5852.63C2863.4 5856.25 2863.4 5862.13 2867.03 5865.8L3378.28 6377.05C3380.11 6378.84 3382.49 6379.75 3384.86 6379.75Z" fill="white"/>
<path id="Vector_49" d="M2080.9 4666.5C2083.28 4666.5 2085.65 4665.59 2087.48 4663.75C2091.11 4660.13 2091.11 4654.25 2087.48 4650.63L1752.53 4315.67C1689.57 4252.67 1689.57 4150.21 1752.53 4087.24C1786.57 4053.22 1805.28 4007.98 1805.28 3959.87C1805.28 3911.76 1786.57 3866.52 1752.53 3832.51L1292.48 3372.47C1288.86 3368.84 1282.98 3368.84 1279.32 3372.47C1275.69 3376.11 1275.69 3381.99 1279.32 3385.63L1739.36 3845.67C1769.86 3876.17 1786.69 3916.73 1786.69 3959.87C1786.69 4003.01 1769.86 4043.57 1739.36 4074.07C1669.15 4144.3 1669.15 4258.59 1739.36 4328.8L2074.32 4663.75C2076.15 4665.59 2078.53 4666.5 2080.9 4666.5Z" fill="white"/>
<path id="Vector_50" d="M4183.28 4203.5C4185.65 4203.5 4188.03 4202.59 4189.86 4200.75C4193.49 4197.13 4193.49 4191.25 4189.86 4187.59L3397.44 3395.17C3393.78 3391.54 3387.9 3391.54 3384.28 3395.17C3380.65 3398.81 3380.65 3404.69 3384.28 3408.33L4176.69 4200.75C4178.53 4202.59 4180.9 4203.5 4183.28 4203.5Z" fill="white"/>
<path id="Vector_51" d="M5433.11 2307.09C5435.49 2307.09 5437.86 2306.19 5439.7 2304.36C5443.32 2300.73 5443.32 2294.84 5439.7 2291.21L4797.74 1649.28C4794.11 1645.65 4788.24 1645.65 4784.61 1649.28C4780.95 1652.92 4780.95 1658.81 4784.61 1662.44L5426.53 2304.36C5428.32 2306.19 5430.74 2307.09 5433.11 2307.09Z" fill="white"/>
<path id="Vector_52" d="M2247.36 4923.42C2301.48 4923.42 2345.48 4879.5 2345.48 4825.46C2345.48 4771.42 2301.48 4727.5 2247.36 4727.5C2242.23 4727.5 2238.07 4731.67 2238.07 4736.8C2238.07 4741.92 2242.23 4746.09 2247.36 4746.09C2291.19 4746.09 2326.86 4781.71 2326.86 4825.46C2326.86 4869.21 2291.19 4904.84 2247.36 4904.84C2203.53 4904.84 2167.86 4869.21 2167.86 4825.46C2167.86 4820.34 2163.69 4816.17 2158.57 4816.17C2153.44 4816.17 2149.28 4820.34 2149.28 4825.46C2149.28 4879.5 2193.28 4923.42 2247.36 4923.42Z" fill="white"/>
<path id="Vector_53" d="M3517.78 4044.78C3520.19 4044.78 3522.57 4043.87 3524.36 4042.05L3564.9 4001.46C3568.57 3997.81 3568.57 3991.92 3564.9 3988.29C3561.28 3984.67 3555.4 3984.66 3551.74 3988.29L3511.19 4028.89C3507.57 4032.54 3507.57 4038.42 3511.24 4042.06C3513.03 4043.87 3515.4 4044.78 3517.78 4044.78Z" fill="white"/>
<path id="Vector_54" d="M3375.9 4186.84C3378.28 4186.84 3380.65 4185.96 3382.49 4184.13L3423.03 4143.53C3426.65 4139.89 3426.65 4134 3423.03 4130.37C3419.36 4126.75 3413.49 4126.74 3409.86 4130.37L3369.32 4170.96C3365.69 4174.63 3365.69 4180.5 3369.32 4184.13C3371.15 4185.96 3373.53 4186.84 3375.9 4186.84Z" fill="white"/>
<path id="Vector_55" d="M3558.32 4186.84C3560.74 4186.84 3563.11 4185.96 3564.9 4184.13C3568.57 4180.5 3568.57 4174.63 3564.9 4170.96L3524.36 4130.37C3520.74 4126.73 3514.86 4126.74 3511.24 4130.37C3507.57 4134 3507.57 4139.89 3511.19 4143.53L3551.74 4184.13C3553.57 4185.96 3555.94 4186.84 3558.32 4186.84Z" fill="white"/>
<path id="Vector_56" d="M3416.44 4044.78C3418.82 4044.78 3421.19 4043.87 3423.03 4042.06C3426.65 4038.42 3426.65 4032.54 3423.03 4028.89L3382.49 3988.29C3378.86 3984.65 3372.94 3984.66 3369.32 3988.29C3365.69 3991.92 3365.69 3997.81 3369.32 4001.46L3409.86 4042.05C3411.65 4043.87 3414.03 4044.78 3416.44 4044.78Z" fill="white"/>
<path id="Vector_57" d="M4953.07 2037C4955.45 2037 4957.82 2036.09 4959.65 2034.27C4963.28 2030.64 4963.28 2024.75 4959.65 2021.11L4477.49 1538.95C4473.86 1535.31 4467.95 1535.31 4464.32 1538.95C4460.7 1542.58 4460.7 1548.47 4464.32 1552.11L4946.49 2034.27C4948.32 2036.09 4950.7 2037 4953.07 2037Z" fill="white"/>
<g id="Person" filter="url(#filter3_d_0_1)">
<path id="Vector_58" d="M5329.61 4067.86C5421.95 4096.57 5468.99 3964.34 5639.82 3943.79C5806.2 3923.76 5845.45 4039.11 6024.46 4043.04C6228.49 4047.52 6457.56 3903.84 6471.14 3757.67C6482.97 3630.34 6326.06 3557.48 6360.41 3470.96C6392.08 3391.21 6530.78 3439.57 6670.07 3336.31C6789.63 3247.67 6872.37 3074.93 6830.96 2951.16C6799.47 2857.05 6721.58 2867.11 6682.07 2758.84C6640.18 2644.05 6711.78 2596.22 6678.69 2479.11C6644.61 2358.52 6520.7 2242.43 6400.89 2241.23C6284.75 2240.06 6265.75 2347.79 6136.13 2355.59C5987.61 2364.55 5927.65 2228.24 5838.36 2262.54C5742.03 2299.52 5782.53 2469.28 5654.7 2541.81C5601.4 2572.02 5586.32 2548.14 5478.53 2578.93C5423.57 2594.63 5318.07 2624.77 5253.32 2694.05C5129.2 2826.83 5244.53 3007.34 5137.32 3093.85C5057.4 3158.3 4970.2 3076.82 4851.95 3149.69C4778.86 3194.71 4702.65 3293.27 4719.03 3379.39C4744.78 3514.9 4972.03 3473.7 5131.11 3664.61C5276.86 3839.54 5218.74 4033.37 5329.61 4067.86Z" fill="#E2BE4F" stroke="black" stroke-width="8.33334" stroke-miterlimit="2" stroke-linejoin="round"/>
<path id="Vector_59" d="M2119.57 3086.95C2161.07 3047.61 2209.57 3046.43 2266.36 3053.45L2286.36 3040.93C2330.23 3013.52 2383.32 3005.02 2433.57 3017.35L2829.28 3114.53C2845.86 3118.61 2860.9 3103.86 2857.15 3087.22C2849.57 3054.02 2838.28 3004.18 2829.53 2964.81C2820.57 2924.53 2836.49 2900.83 2849.9 2888.63C2857.53 2881.67 2869.4 2882.43 2876.19 2890.22C2919.99 2940.42 3081.74 3132.57 3076.61 3227.59C3070.69 3337.44 2995.32 3657.36 2995.32 3657.36H2659.03L2724.94 3441.94C2729.57 3426.84 2721.49 3410.78 2706.61 3405.52L2226.4 3235.68C2217.74 3232.62 2214.9 3221.88 2220.86 3214.91C2231.53 3202.42 2248.4 3184.57 2266.78 3172.16L2130.23 3118.19C2117.82 3113.29 2112.73 3098.43 2119.57 3086.95Z" fill="white"/>
<path id="Vector_60" d="M2677.49 3281.64C2681.65 3281.64 2685.44 3278.82 2686.49 3274.59C2687.74 3269.61 2684.74 3264.55 2679.74 3263.31L2338.53 3177.88C2333.53 3176.61 2328.49 3179.66 2327.24 3184.64C2325.99 3189.64 2329.03 3194.69 2334.03 3195.93L2675.24 3281.36C2675.99 3281.55 2676.74 3281.64 2677.49 3281.64Z" fill="black"/>
<path id="Vector_61" d="M2712.24 3181.68C2716.4 3181.68 2720.19 3178.87 2721.24 3174.64C2722.49 3169.65 2719.49 3164.6 2714.49 3163.35L2373.28 3077.93C2368.28 3076.67 2363.24 3079.71 2361.99 3084.69C2360.74 3089.68 2363.78 3094.73 2368.74 3095.98L2709.94 3181.4C2710.74 3181.59 2711.49 3181.68 2712.24 3181.68Z" fill="black"/>
<path id="Vector_62" d="M7209.43 4576.25C7113.88 4582 6953.76 4589.92 6856.37 4594.59C6811.27 4596.75 6777.41 4636.5 6782.38 4681.42L6848.13 5275.67C6848.13 5275.67 6697.86 5208.09 6533.3 5012.09C6368.75 4816.05 6220.51 4413.13 5856.07 4398.88C5624.15 4389.8 5042.36 4426.92 4649.82 4455.13C4448.2 4469.59 4252.61 4531.42 4080.44 4637.38C3955.36 4714.34 3769.61 4783.09 3534.74 4740.38C3103.49 4661.92 2908.65 4292.8 3088.19 3696.58C3104.65 3641.98 3063.99 3586.91 3006.99 3586.91H2641.19C2601.49 3586.91 2566.61 3613.1 2555.4 3651.22C2472.07 3935.44 2193.61 5080.8 2995.32 5441.42C3468.49 5654.21 3965.78 5629.71 3965.78 5629.71L3769.36 7424.34C3748.36 7616.13 3842.65 7802.34 4010.03 7898.34C4185.69 7999.05 4460.28 8091.55 4868.78 8078.01C5209.82 8066.71 5474.86 8006.3 5670.53 7937.55C5938.24 7843.51 6131.14 7608.34 6172.2 7327.55C6216.41 7025.21 6267.54 6556.3 6275.96 5967.5C6275.96 5967.5 6553.08 6271.05 7080.38 6172.75C7731.58 6051.38 7416.33 4952.8 7315.48 4648.09C7300.51 4602.84 7257.01 4573.42 7209.43 4576.25Z" fill="white"/>
<path id="Vector_63" d="M6860.61 4200.96L6903.35 4153.59V3834.62C6903.35 3803.57 6928.51 3778.41 6959.55 3778.41C6990.59 3778.41 7015.76 3803.57 7015.76 3834.62V4178.04L7314.86 4243.17V4418.5C7314.86 4494.88 7270.5 4564.3 7201.19 4596.38L7186.31 4603.25C7096.59 4644.8 6991.79 4637.05 6909.16 4582.8C6869.28 4556.59 6842.9 4514.21 6836.98 4466.88L6819.91 4330.25C6814.03 4283.3 6828.89 4236.09 6860.61 4200.96Z" fill="white"/>
<path id="Vector_64" d="M7098.67 4065.95C7116.57 4065.95 7131.13 4080.51 7131.13 4098.41V4226.59C7131.13 4244.5 7116.57 4259.04 7098.67 4259.04H7062.08C7044.18 4259.04 7029.62 4244.5 7029.62 4226.59V4109.55C7029.62 4085.51 7049.18 4065.95 7073.23 4065.95H7098.67ZM7062.08 4277.67H7098.67C7126.83 4277.67 7149.75 4254.75 7149.75 4226.59V4098.41C7149.75 4070.25 7126.83 4047.34 7098.67 4047.34H7073.23C7038.92 4047.34 7011.01 4075.25 7011.01 4109.55V4226.59C7011.01 4254.75 7033.92 4277.67 7062.08 4277.67Z" fill="black"/>
<path id="Vector_65" d="M7189.57 4095.52C7207.46 4095.52 7222.02 4110.08 7222.02 4127.98V4252.92C7222.02 4270.8 7207.46 4285.38 7189.57 4285.38H7182.2C7164.3 4285.38 7149.75 4270.8 7149.75 4252.92V4127.98C7149.75 4110.08 7164.3 4095.52 7182.2 4095.52H7189.57ZM7182.2 4304H7189.57C7217.73 4304 7240.63 4281.09 7240.63 4252.92V4127.98C7240.63 4099.82 7217.73 4076.91 7189.57 4076.91H7182.2C7154.04 4076.91 7131.13 4099.82 7131.13 4127.98V4252.92C7131.13 4281.09 7154.04 4304 7182.2 4304Z" fill="black"/>
<path id="Vector_66" d="M7273.1 4129.74C7291 4129.74 7305.56 4144.3 7305.56 4162.2V4285.84C7305.56 4303.71 7291 4318.29 7273.1 4318.29C7255.2 4318.29 7240.63 4303.71 7240.63 4285.84V4162.2C7240.63 4144.3 7255.2 4129.74 7273.1 4129.74ZM7273.1 4336.88C7301.26 4336.88 7324.17 4313.96 7324.17 4285.84V4162.2C7324.17 4134.04 7301.26 4111.13 7273.1 4111.13C7244.93 4111.13 7222.02 4134.04 7222.02 4162.2V4285.84C7222.02 4313.96 7244.93 4336.88 7273.1 4336.88Z" fill="black"/>
<path id="Vector_67" d="M6874.84 4277.67C6876.72 4277.67 6878.62 4277.09 6880.26 4275.92L7008.01 4183.96C7012.18 4181 7013.13 4175.17 7010.13 4171C7007.12 4166.84 7001.31 4165.89 6997.14 4168.88L6869.39 4260.8C6865.22 4263.8 6864.27 4269.63 6867.28 4273.79C6869.09 4276.29 6871.94 4277.67 6874.84 4277.67Z" fill="black"/>
<path id="Vector_68" d="M5722.4 8311.05C5722.4 8311.05 5837.2 6860.63 5505.86 6397.92L4425.74 6352.55C4425.74 6352.55 4033.65 6847.05 4076.11 8301.59L5722.4 8311.05Z" fill="#706076" stroke="black" stroke-width="16.6667" stroke-miterlimit="2" stroke-linejoin="round"/>
<path id="Vector_69" d="M5798.2 4396.42L5937.11 6357.46C5943.4 6446.09 5881.65 6525.17 5794.11 6540.26C5516.2 6588.17 4900.9 6661.8 4277.45 6520.46C4207.07 6504.51 4162.03 6435.76 4176.53 6365.09L4566.4 4463.88C4566.4 4463.88 5269.49 4364.5 5798.2 4396.42Z" fill="#210124"/>
<path id="Vector_70" d="M5402.53 6316.17C5406.49 6316.17 5410.2 6313.63 5411.4 6309.63C5412.95 6304.71 5410.2 6299.51 5405.28 6298.01C4862.07 6130.05 4604.36 5506.84 4601.82 5500.55C4599.9 5495.8 4594.45 5493.5 4589.7 5495.42C4584.95 5497.34 4582.65 5502.8 4584.57 5507.55C4587.15 5513.88 4848.24 6145.25 5399.78 6315.76C5400.7 6316.05 5401.61 6316.17 5402.53 6316.17Z" fill="white"/>
<path id="Vector_71" d="M4957.41 3587.62L4957.41 3587.62C4948.06 3637.57 4926.11 3684.36 4893.7 3723.46C4893.44 3724.11 4893.26 3725.31 4893.61 3727.38C4894 3729.68 4894.96 3732.54 4896.46 3735.9C4899.44 3742.6 4904.2 3750.52 4909.34 3758.61C4911.12 3761.4 4912.95 3764.22 4914.75 3767.01C4918.08 3772.15 4921.33 3777.16 4923.98 3781.58C4926.04 3785.02 4927.84 3788.25 4929.12 3791.07C4930.32 3793.73 4931.37 3796.65 4931.27 3799.23C4928.7 3868.65 4934.54 3914.25 4956.05 3957.47C4970.93 3987.34 4993.24 4005.36 5019.91 4014.19C5046.7 4023.07 5078.16 4022.75 5111.25 4015.38L5116.31 4014.25L5116.32 4019.43C5116.44 4086.76 5113.44 4171.82 5101.29 4249.1C5095.22 4287.75 5086.84 4324.55 5075.38 4356.26C5063.93 4387.93 5049.29 4414.81 5030.54 4433.34L5030.54 4433.35C5018.53 4445.18 5023.59 4465.02 5039.61 4469.31C5104.83 4486.71 5234.56 4503.76 5442.02 4458.48L5442.9 4462.55L5442.02 4458.48C5474.08 4451.48 5493.97 4419.21 5486.07 4387.3L5350.94 3841.66L5349.86 3837.27L5354.32 3836.55C5355 3836.43 5382.71 3831.83 5411.13 3818.21C5439.72 3804.51 5467.71 3782.37 5471.47 3747.74L5471.47 3747.74C5473.36 3730.38 5468.09 3718.54 5459.41 3710.22C5450.55 3701.71 5437.77 3696.55 5424.22 3693.56C5410.74 3690.58 5396.94 3689.85 5386.44 3689.87C5381.21 3689.88 5376.83 3690.08 5373.77 3690.27C5372.24 3690.37 5371.04 3690.47 5370.23 3690.54C5369.82 3690.57 5369.51 3690.6 5369.31 3690.62C5369.21 3690.63 5369.13 3690.64 5369.09 3690.64L5369.03 3690.65L5369.02 3690.65L5369.02 3690.65L5363.56 3691.25L5364.46 3685.83L5364.46 3685.83L5364.46 3685.83L5364.46 3685.82L5364.47 3685.77C5364.48 3685.71 5364.49 3685.62 5364.51 3685.51C5364.55 3685.27 5364.6 3684.91 5364.66 3684.42C5364.79 3683.45 5364.97 3682 5365.15 3680.11C5365.51 3676.32 5365.89 3670.78 5365.97 3663.81C5366.14 3649.86 5365.09 3630.25 5360.24 3607.67C5350.64 3563.07 5326.19 3506.88 5266.7 3459.83C5265.58 3460.34 5264.09 3461.01 5262.25 3461.8C5257.85 3463.67 5251.45 3466.22 5243.36 3468.92C5227.19 3474.32 5204.25 3480.37 5177.14 3482.97C5124.3 3488.04 5055.51 3479.98 4990.28 3428.41C4989.84 3430.35 4989.31 3432.69 4988.7 3435.42C4986.77 3444.09 4984.02 3456.56 4980.75 3471.79C4974.22 3502.24 4965.63 3543.68 4957.41 3587.62Z" fill="white" stroke="black" stroke-width="8.33"/>
<path id="Vector_72" d="M5112.11 4028.74C5112.7 4028.74 5113.28 4028.7 5113.82 4028.59C5166.99 4018.75 5239.9 3969.3 5242.99 3967.2C5247.24 3964.31 5248.32 3958.52 5245.45 3954.27C5242.53 3950.03 5236.74 3948.94 5232.49 3951.83C5231.78 3952.32 5159.74 4001.17 5110.45 4010.29C5105.4 4011.22 5102.07 4016.08 5102.99 4021.13C5103.82 4025.61 5107.74 4028.74 5112.11 4028.74Z" fill="black"/>
<path id="Vector_73" d="M4957.4 8311.05C4939.2 8148.8 4907.28 7331.8 4907.28 7331.8" stroke="black" stroke-width="16.6667" stroke-miterlimit="1.5" stroke-linecap="round" stroke-linejoin="round"/>
</g>
<g id="Group 1" filter="url(#filter4_d_0_1)">
<path id="Vector_74" d="M7508.35 4312.75H8203.69C8274.36 4312.75 8331.86 4255.25 8331.86 4184.59V2713.06C8331.86 2642.37 8274.36 2584.88 8203.69 2584.88H7758.84C7753.7 2584.88 7749.53 2589.04 7749.53 2594.18C7749.53 2599.33 7753.7 2603.49 7758.84 2603.49H8203.69C8264.1 2603.49 8313.25 2652.64 8313.25 2713.06V4184.59C8313.25 4245 8264.1 4294.13 8203.69 4294.13H7508.35C7503.21 4294.13 7499.04 4298.29 7499.04 4303.46C7499.04 4308.59 7503.21 4312.75 7508.35 4312.75Z" fill="white"/>
<path id="Vector_75" d="M5948.7 4312.75H6669.08C6674.22 4312.75 6678.38 4308.59 6678.38 4303.46C6678.38 4298.29 6674.22 4294.13 6669.08 4294.13H5948.7C5888.28 4294.13 5839.11 4245 5839.11 4184.59V3959.52C5839.11 3954.37 5834.95 3950.21 5829.82 3950.21C5824.65 3950.21 5820.49 3954.37 5820.49 3959.52V4184.59C5820.49 4255.25 5878.03 4312.75 5948.7 4312.75Z" fill="white"/>
<path id="Vector_76" d="M6328.1 4079.07H6622.86C6628 4079.07 6632.17 4074.91 6632.17 4069.77C6632.17 4064.62 6628 4060.46 6622.86 4060.46H6328.1C6322.96 4060.46 6318.8 4064.62 6318.8 4069.77C6318.8 4074.91 6322.96 4079.07 6328.1 4079.07Z" fill="white"/>
<path id="Vector_77" d="M7355.66 4079.07H7952.49C7957.63 4079.07 7961.8 4074.91 7961.8 4069.77C7961.8 4064.62 7957.63 4060.46 7952.49 4060.46H7355.66C7350.51 4060.46 7346.35 4064.62 7346.35 4069.77C7346.35 4074.91 7350.51 4079.07 7355.66 4079.07Z" fill="white"/>
<path id="Vector_78" d="M7887.26 3783.18H7011.84L7887.26 2880.11V3783.18ZM6989.86 3801.79H7896.56C7901.7 3801.79 7905.87 3797.63 7905.87 3792.48V2857.14C7905.87 2853.34 7903.57 2849.94 7900.06 2848.51C7896.54 2847.09 7892.52 2847.93 7889.88 2850.66L6983.17 3786.01C6980.57 3788.69 6979.83 3792.67 6981.28 3796.11C6982.75 3799.55 6986.12 3801.79 6989.86 3801.79Z" fill="white"/>
<path id="Vector_79" d="M7811 3792.48C7811 3839.74 7849.31 3878.04 7896.56 3878.04C7943.81 3878.04 7982.12 3839.74 7982.12 3792.48C7982.12 3745.23 7943.81 3706.92 7896.56 3706.92C7849.31 3706.92 7811 3745.23 7811 3792.48Z" fill="#706076" stroke="white" stroke-width="4.16667" stroke-miterlimit="2" stroke-linejoin="round"/>
<path id="Vector_80" d="M7811 2857.14C7811 2904.39 7849.31 2942.7 7896.56 2942.7C7943.81 2942.7 7982.12 2904.39 7982.12 2857.14C7982.12 2809.89 7943.81 2771.58 7896.56 2771.58C7849.31 2771.58 7811 2809.89 7811 2857.14Z" fill="#706076" stroke="white" stroke-width="4.16667" stroke-miterlimit="2" stroke-linejoin="round"/>
</g>
</g>
<defs>
<filter id="filter0_i_0_1" x="3064.24" y="5200.75" width="5172.75" height="3122.84" filterUnits="userSpaceOnUse" color-interpolation-filters="sRGB">
<feFlood flood-opacity="0" result="BackgroundImageFix"/>
<feBlend mode="normal" in="SourceGraphic" in2="BackgroundImageFix" result="shape"/>
<feColorMatrix in="SourceAlpha" type="matrix" values="0 0 0 0 0 0 0 0 0 0 0 0 0 0 0 0 0 0 127 0" result="hardAlpha"/>
<feOffset dx="19" dy="22"/>
<feGaussianBlur stdDeviation="15"/>
<feComposite in2="hardAlpha" operator="arithmetic" k2="-1" k3="1"/>
<feColorMatrix type="matrix" values="0 0 0 0 0 0 0 0 0 0 0 0 0 0 0 0 0 0 0.5 0"/>
<feBlend mode="normal" in2="shape" result="effect1_innerShadow_0_1"/>
</filter>
<filter id="filter1_d_0_1" x="1566" y="6863" width="1722.38" height="2231.34" filterUnits="userSpaceOnUse" color-interpolation-filters="sRGB">
<feFlood flood-opacity="0" result="BackgroundImageFix"/>
<feColorMatrix in="SourceAlpha" type="matrix" values="0 0 0 0 0 0 0 0 0 0 0 0 0 0 0 0 0 0 127 0" result="hardAlpha"/>
<feOffset dx="17" dy="16"/>
<feGaussianBlur stdDeviation="15"/>
<feComposite in2="hardAlpha" operator="out"/>
<feColorMatrix type="matrix" values="0 0 0 0 0 0 0 0 0 0 0 0 0 0 0 0 0 0 0.5 0"/>
<feBlend mode="normal" in2="BackgroundImageFix" result="effect1_dropShadow_0_1"/>
<feBlend mode="normal" in="SourceGraphic" in2="effect1_dropShadow_0_1" result="shape"/>
</filter>
<filter id="filter2_d_0_1" x="6403.4" y="6336.34" width="1532.05" height="1939.46" filterUnits="userSpaceOnUse" color-interpolation-filters="sRGB">
<feFlood flood-opacity="0" result="BackgroundImageFix"/>
<feColorMatrix in="SourceAlpha" type="matrix" values="0 0 0 0 0 0 0 0 0 0 0 0 0 0 0 0 0 0 127 0" result="hardAlpha"/>
<feOffset dx="20" dy="32"/>
<feGaussianBlur stdDeviation="15"/>
<feComposite in2="hardAlpha" operator="out"/>
<feColorMatrix type="matrix" values="0 0 0 0 0 0 0 0 0 0 0 0 0 0 0 0 0 0 0.25 0"/>
<feBlend mode="normal" in2="BackgroundImageFix" result="effect1_dropShadow_0_1"/>
<feBlend mode="normal" in="SourceGraphic" in2="effect1_dropShadow_0_1" result="shape"/>
</filter>
<filter id="filter3_d_0_1" x="2116.51" y="2237.05" width="5432.22" height="6157.33" filterUnits="userSpaceOnUse" color-interpolation-filters="sRGB">
<feFlood flood-opacity="0" result="BackgroundImageFix"/>
<feColorMatrix in="SourceAlpha" type="matrix" values="0 0 0 0 0 0 0 0 0 0 0 0 0 0 0 0 0 0 127 0" result="hardAlpha"/>
<feOffset dx="38" dy="45"/>
<feGaussianBlur stdDeviation="15"/>
<feComposite in2="hardAlpha" operator="out"/>
<feColorMatrix type="matrix" values="0 0 0 0 0 0 0 0 0 0 0 0 0 0 0 0 0 0 0.25 0"/>
<feBlend mode="normal" in2="BackgroundImageFix" result="effect1_dropShadow_0_1"/>
<feBlend mode="normal" in="SourceGraphic" in2="effect1_dropShadow_0_1" result="shape"/>
</filter>
<filter id="filter4_d_0_1" x="5820.49" y="2567.88" width="2620.37" height="1787.88" filterUnits="userSpaceOnUse" color-interpolation-filters="sRGB">
<feFlood flood-opacity="0" result="BackgroundImageFix"/>
<feColorMatrix in="SourceAlpha" type="matrix" values="0 0 0 0 0 0 0 0 0 0 0 0 0 0 0 0 0 0 127 0" result="hardAlpha"/>
<feOffset dx="79" dy="13"/>
<feGaussianBlur stdDeviation="15"/>
<feComposite in2="hardAlpha" operator="out"/>
<feColorMatrix type="matrix" values="0 0 0 0 0 0 0 0 0 0 0 0 0 0 0 0 0 0 0.25 0"/>
<feBlend mode="normal" in2="BackgroundImageFix" result="effect1_dropShadow_0_1"/>
<feBlend mode="normal" in="SourceGraphic" in2="effect1_dropShadow_0_1" result="shape"/>
</filter>
<clipPath id="clip0_0_1">
<rect width="10417" height="10417" fill="white"/>
</clipPath>
</defs>
</svg>
