<svg width="607" height="566" viewBox="0 0 607 566" fill="none" xmlns="http://www.w3.org/2000/svg">
<path d="M331.068 3C481.803 3 604 128.361 604 283C604 437.639 481.803 563 331.068 563C222.687 563 129.06 521.904 85 428H88.034C131.887 520.307 224.237 560.198 331.068 560.2C480.297 560.2 601.271 436.094 601.268 283C601.268 129.906 480.295 5.8 331.068 5.8C224.237 5.8 133.733 51.1906 89.8778 143.5H85C129.058 49.5981 222.685 3 331.068 3Z" fill="#F2EDF5" stroke="#F2EDF5" stroke-width="10"/>
<path d="M269.023 285.499C269.023 212.321 329.02 153 403.028 153C477.037 153 537.033 212.323 537.034 285.499C537.034 358.677 477.037 417.999 403.028 418C329.018 418 269.023 358.677 269.023 285.499ZM403.028 411.487C473.399 411.487 530.446 355.081 530.447 285.499C530.447 215.919 473.4 159.513 403.028 159.513C332.657 159.513 275.61 215.919 275.61 285.499C275.61 355.079 332.657 411.486 403.028 411.487Z" fill="#F2EDF5" stroke="#F2EDF5" stroke-width="25"/>
<g clip-path="url(#clip0_0_1)">
<g clip-path="url(#clip1_0_1)">
<path d="M492.295 283.032C492.295 330.38 453.473 368.764 405.588 368.764C357.701 368.764 318.884 330.38 318.884 283.032C318.884 235.684 357.702 197.3 405.588 197.3C453.473 197.3 492.295 235.684 492.295 283.032ZM405.085 204.518C360.99 204.518 325.24 239.863 325.24 283.463C325.24 327.067 360.99 362.412 405.085 362.412C449.181 362.412 484.931 327.067 484.931 283.463C484.931 239.863 449.181 204.518 405.085 204.518Z" fill="#F2EDF5"/>
<path d="M479.38 283.681C479.38 324.133 446.216 356.927 405.304 356.927C364.391 356.927 331.226 324.133 331.226 283.681C331.226 243.228 364.393 210.436 405.304 210.436C446.216 210.436 479.38 243.23 479.38 283.681ZM354.728 255.61L338.964 262.251L347.431 277.549L335.169 290.828L349.765 301.508L344.218 317.962L361.733 322.001L363.779 339.323L381.587 336.146L390.053 350.87L404.941 340.475L419.535 350.87L428.297 335.856L445.812 339.897L447.859 321.42L465.668 318.251L460.12 301.22L474.714 290.828L463.038 277.837L471.214 261.961L454.864 255.033L456.906 237.425L438.514 237.135L433.26 220.105L416.621 227.031L404.944 214.33L393.268 227.321L376.628 220.105L370.788 237.135L352.98 236.557L354.728 255.61Z" fill="#F2EDF5"/>
<path d="M452.527 302.372L456.322 312.763L445.228 314.785L426.836 300.642L424.5 303.239L440.559 320.267L439.976 330.952L429.173 328.351L418.119 307.62C416.898 308.282 415.622 308.86 414.3 309.343L422.751 331.815L416.909 340.475L409.03 334.412L406.741 310.942C406.05 310.997 405.35 311.031 404.65 311.031C403.949 311.031 403.256 310.997 402.569 310.947L401.44 334.7L392.682 341.052L387.135 332.104L395.001 309.345C393.72 308.878 392.484 308.328 391.298 307.692L380.71 328.348L370.2 330.659L369.032 320.845L385.157 303.223C384.133 302.241 383.181 301.184 382.317 300.059L364.071 314.491L353.561 312.761L356.479 302.658L378.666 293.71C378.101 292.332 377.649 290.903 377.314 289.427L354.435 295.152L346.261 289.091L352.682 281.873H376.659C376.717 280.756 376.849 279.655 377.037 278.576L376.914 278.411L353.266 273.215L348.888 265.42L358.522 260.802L379.625 270.839C380.102 269.905 380.629 269.002 381.208 268.131L362.318 254.455L361.442 244.353H371.952L386.255 261.385C386.255 261.385 386.635 261.517 387.156 261.68C388.021 260.995 388.926 260.36 389.87 259.778C389.664 259.079 389.468 258.496 389.468 258.496L377.79 240.598L380.419 230.206L390.053 233.959L397.735 256.46C398.695 256.22 399.676 256.031 400.675 255.893L398.225 232.518L404.941 225.301L411.657 232.228L409.084 255.957C410.253 256.142 411.389 256.397 412.505 256.719L418.955 234.535L428.88 229.629L432.385 240.31L420.12 259.072L423.333 261.959L438.223 244.639H448.734L447.857 254.455L428.88 267.444L429.171 269.755C429.171 269.755 429.161 269.794 429.143 269.859C429.407 270.331 429.664 270.81 429.908 271.299C433.074 269.884 451.358 261.095 451.358 261.095L460.992 265.714C460.992 265.714 457.489 274.086 456.614 274.086C455.843 274.086 436.899 277.637 432.242 278.511C432.47 279.794 432.609 281.107 432.652 282.443L456.901 282.168L463.617 289.676L455.148 295.735L431.9 289.776C431.563 291.164 431.125 292.517 430.584 293.812L452.527 302.372ZM405.234 262.537C403.141 262.537 401.438 264.218 401.438 266.29C401.438 268.363 403.139 270.045 405.234 270.045C407.329 270.045 409.03 268.365 409.03 266.29C409.03 264.218 407.327 262.537 405.234 262.537ZM417.202 267.444C415.107 267.444 413.408 269.125 413.408 271.197C413.408 273.27 415.105 274.952 417.202 274.952C419.299 274.952 420.999 273.27 420.999 271.197C420.999 269.125 419.299 267.444 417.202 267.444ZM422.458 279.567C420.362 279.567 418.664 281.25 418.664 283.32C418.664 285.391 420.361 287.071 422.458 287.071C424.554 287.071 426.255 285.393 426.255 283.32C426.255 281.25 424.556 279.567 422.458 279.567ZM417.493 291.692C415.4 291.692 413.697 293.372 413.697 295.443C413.697 297.518 415.398 299.194 417.493 299.194C419.59 299.194 421.291 297.517 421.291 295.443C421.291 293.372 419.59 291.692 417.493 291.692ZM405.234 297.173C403.141 297.173 401.438 298.856 401.438 300.93C401.438 302.999 403.139 304.681 405.234 304.681C407.329 304.681 409.03 303.001 409.03 300.93C409.03 298.858 407.327 297.173 405.234 297.173ZM393.264 291.692C391.167 291.692 389.47 293.372 389.47 295.443C389.47 297.518 391.167 299.194 393.264 299.194C395.361 299.194 397.06 297.518 397.06 295.443C397.06 293.372 395.361 291.692 393.264 291.692ZM387.717 279.567C385.62 279.567 383.923 281.25 383.923 283.32C383.923 285.391 385.62 287.071 387.717 287.071C389.814 287.071 391.513 285.393 391.513 283.32C391.513 281.25 389.814 279.567 387.717 279.567ZM392.389 267.444C390.292 267.444 388.595 269.125 388.595 271.197C388.595 273.27 390.292 274.952 392.389 274.952C394.485 274.952 396.182 273.27 396.182 271.197C396.182 269.125 394.485 267.444 392.389 267.444ZM404.941 278.415C402.198 278.415 399.98 280.61 399.98 283.322C399.98 286.032 402.2 288.225 404.941 288.225C407.682 288.225 409.902 286.03 409.902 283.322C409.902 280.61 407.682 278.415 404.941 278.415Z" fill="#F2EDF5"/>
</g>
</g>
<path d="M24.9543 337.55C25.6197 344.576 28.2372 351.206 32.8066 357.441C37.3316 363.72 43.4759 368.769 51.2395 372.59C59.0031 376.454 67.9866 378.386 78.1901 378.386C93.9391 378.386 106.871 374.807 116.986 367.65C127.056 360.537 132.091 350.174 132.091 336.562C132.091 326.902 129.43 318.823 124.106 312.325C118.782 305.87 112.239 300.711 104.475 296.847C96.7118 293.027 86.0646 288.592 72.5338 283.542C58.1158 278.273 46.4704 273.377 37.5978 268.855C28.7252 264.376 21.25 258.229 15.1722 250.413C9.05009 242.641 5.98903 232.718 5.98903 220.643C5.98903 210.983 8.76173 201.806 14.3071 193.112C19.8525 184.462 28.2372 177.458 39.4611 172.101C50.6406 166.7 64.4375 164 80.8519 164C91.7209 164 100.704 164.768 107.803 166.305C114.901 167.842 122.11 170.367 129.43 173.88L122.11 196.273C108.357 190.345 94.8263 187.382 81.5174 187.382C65.7684 187.382 53.4133 190.499 44.4519 196.734C35.4462 203.013 31.0542 211.531 31.2761 222.289C31.2761 228.876 33.6051 234.518 38.2633 239.216C42.9214 243.958 48.6886 247.976 55.5649 251.269C62.4412 254.562 71.7575 258.295 83.5137 262.466C99.2626 268.174 112.128 273.619 122.11 278.8C132.091 283.937 140.587 291.051 147.596 300.14C154.561 309.273 158.044 320.645 158.044 334.257C158.044 354.455 151.567 370.701 138.613 382.996C125.614 395.291 105.584 401.438 78.5229 401.438C62.1085 401.438 48.0897 398.408 36.4665 392.349C24.799 386.333 15.9264 378.539 9.84863 368.967C3.72651 359.439 0.443632 349.515 0 339.197L24.9543 337.55ZM176.011 392.217C183.775 392.217 190.651 389.516 196.64 384.116C202.629 378.759 205.623 369.384 205.623 355.992V189.687L183.996 189.028V167.293H229.58V356.98C229.58 374.544 225.742 387.716 218.067 396.498C210.437 405.28 198.636 409.78 182.665 410L176.011 392.217Z" fill="#F2EDF5"/>
<defs>
<clipPath id="clip0_0_1">
<rect width="173.411" height="171.464" fill="#F2EDF5" transform="translate(318.884 197.3)"/>
</clipPath>
<clipPath id="clip1_0_1">
<rect width="173.411" height="171.464" fill="#F2EDF5" transform="translate(318.884 197.3)"/>
</clipPath>
</defs>
</svg>
